<?xml version="1.0" encoding="UTF-8"?>
<!DOCTYPE svg PUBLIC "-//W3C//DTD SVG 1.1//EN" "http://www.w3.org/Graphics/SVG/1.1/DTD/svg11.dtd">
<!-- Creator: CorelDRAW X7 -->
<svg xmlns="http://www.w3.org/2000/svg" xml:space="preserve" width="312.343mm" height="43.5694mm" version="1.1" style="shape-rendering:geometricPrecision; text-rendering:geometricPrecision; image-rendering:optimizeQuality; fill-rule:evenodd; clip-rule:evenodd"
viewBox="0 0 37433 5222"
 xmlns:xlink="http://www.w3.org/1999/xlink">
 <defs>
  <style type="text/css">
   <![CDATA[
    .fil2 {fill:#89BD2F}
    .fil1 {fill:#144D29}
    .fil4 {fill:#E31E24;fill-rule:nonzero}
    .fil3 {fill:#89BD2F;fill-rule:nonzero}
    .fil0 {fill:#144D29;fill-rule:nonzero}
   ]]>
  </style>
 </defs>
 <g id="Слой_x0020_1">
  <metadata id="CorelCorpID_0Corel-Layer"/>
  <g id="_560160127728">
   <path class="fil0" d="M29687 3926l0 0c-387,0 -146,-571 175,-571 395,0 193,571 -175,571l0 0zm-90 -792l-4 0 133 -716 -524 0 -192 1066c-117,492 -9,831 575,831 677,0 1022,-416 1022,-839 0,-545 -680,-646 -1010,-342l0 0z"/>
   <path class="fil0" d="M16965 2804l0 0c97,0 198,45 198,157 0,164 -209,224 -628,220 37,-172 179,-377 430,-377l0 0zm703 153c0,-340 -266,-546 -636,-546 -1157,0 -1541,1952 -273,1912 380,-13 599,-282 643,-536 -257,126 -919,245 -919,-213 733,19 1185,-149 1185,-617l0 0z"/>
   <path class="fil0" d="M27338 2413c-117,638 -147,1595 -797,1902 966,268 1090,-790 1216,-1473l412 0 -272 1480 543 0 351 -1909 -1453 0 0 0z"/>
   <path class="fil0" d="M26014 2804l0 0c97,0 198,45 198,157 0,164 -209,224 -628,220 38,-172 180,-377 430,-377l0 0zm703 153c0,-340 -265,-546 -635,-546 -1158,0 -1542,1952 -273,1912 379,-13 599,-282 643,-536 -258,126 -920,245 -920,-213 733,19 1185,-149 1185,-617l0 0z"/>
   <path class="fil0" d="M22372 4317c0,0 142,-749 185,-994 49,-274 211,-474 406,-474 158,0 214,199 168,421 -38,185 -131,674 -131,674 -53,282 27,370 416,373 0,0 106,-558 170,-895 61,-316 224,-573 435,-573 166,0 199,192 182,416 -20,274 -115,594 -131,675 -55,243 89,369 454,377 0,0 94,-494 179,-942 32,-170 41,-337 41,-465 0,-699 -787,-570 -1076,-148 -54,-588 -839,-328 -1059,-8l-6 13 -1 -13c-21,-203 -132,-304 -398,-301l-354 1864 520 0 0 0z"/>
   <path class="fil0" d="M18487 3210l0 0c52,-192 150,-439 396,-439 108,0 191,56 191,149 0,216 -442,267 -587,290l0 0zm157 728l0 0c-259,0 -265,-201 -221,-390 94,-37 203,-52 303,-52 419,0 305,442 -82,442l0 0zm519 -639l-45 -2 45 -9c187,-49 427,-190 427,-431 0,-366 -374,-446 -662,-446 -730,0 -1066,668 -1066,1333 0,872 1679,691 1679,-70 0,-230 -191,-357 -378,-375l0 0z"/>
   <path class="fil0" d="M14186 2407c921,-140 62,880 658,880 105,0 221,-39 288,-101l142 -779 535 0 -351 1914 -535 0 142 -728 1 -6 -9 6c-100,62 -250,109 -429,109 -806,0 -541,-793 -442,-1295l0 0z"/>
   <path class="fil0" d="M13109 3263l0 0c-82,452 -284,637 -445,637 -487,0 -138,-1184 524,-1063l-79 426 0 0zm498 204l183 -965c-875,-294 -1911,140 -1911,1195 0,771 846,816 1174,233l13 -17 -2 17c-21,283 229,421 629,357 -206,-207 -132,-583 -86,-820l0 0z"/>
   <path class="fil0" d="M10430 3318c20,-72 46,-137 76,-195 46,-88 99,-155 160,-203 61,-47 125,-72 193,-72 58,0 104,16 139,45 34,29 59,66 74,111 15,46 23,93 22,143 0,72 -9,145 -25,218 -9,35 -19,70 -30,104 -57,152 -149,295 -259,380 -11,8 -22,15 -34,22 -52,30 -106,45 -164,46 -52,0 -99,-8 -140,-24 -15,-6 -29,-12 -42,-19 -21,-14 -41,-30 -62,-49l0 0 68 -393c6,-40 14,-78 24,-114l0 0zm50 -600c-60,-194 -170,-288 -408,-281 0,0 -378,1921 -540,2779 328,29 552,-47 605,-351l118 -616c0,0 84,37 143,51 59,15 127,23 203,24 127,-1 245,-22 353,-66 436,-168 708,-645 708,-1155 0,-94 -13,-179 -37,-255l-3 -8c-23,-83 -60,-157 -108,-220 -49,-64 -110,-114 -183,-150 -74,-37 -160,-55 -259,-56 -22,0 -43,1 -64,3 -162,12 -328,87 -464,233 -20,22 -64,68 -64,68z"/>
   <path class="fil0" d="M21001 3260l0 0c-83,450 -285,634 -446,634 -487,0 -137,-1180 524,-1059l-78 425 0 0zm497 202l183 -961c-874,-292 -1911,140 -1911,1190 0,769 846,813 1174,233l14 -22 -2 22c-22,282 228,420 628,355 -206,-206 -131,-580 -86,-817l0 0z"/>
   <path class="fil0" d="M8202 2496l217 0c359,0 599,-151 599,-404 0,-217 -177,-310 -426,-310 -114,0 -204,9 -254,22l-136 692 0 0zm-264 1308l0 0c73,9 155,13 250,13 354,0 676,-137 676,-470 0,-297 -254,-386 -563,-386l-199 0 -164 843 0 0zm-163 -2448c218,-40 499,-71 803,-71 318,0 549,40 753,160 205,102 359,292 359,545 0,377 -286,617 -617,710l-24 6 24 7c295,89 481,324 481,652 0,319 -177,554 -418,709 -258,169 -644,244 -1152,244 -345,0 -622,-27 -772,-58l563 -2904 0 0z"/>
  </g>
  <path class="fil1" d="M6227 2951c70,-256 94,-533 69,-781 -756,1422 -2861,1331 -3868,1080l198 -1059c-747,-39 -1575,218 -2063,949 -426,636 -563,1756 -563,1756 2093,530 5531,699 6227,-1945l0 0z"/>
  <path class="fil2" d="M5906 250c-1885,-392 -4914,-647 -5381,1838l-173 950c420,-1518 2063,-1719 3222,-1492l-200 1048c658,35 1491,-198 1956,-786 475,-601 576,-1558 576,-1558z"/>
  <g id="_560160087984">
   <polygon class="fil3" points="10451,1524 10370,1938 10166,1938 10294,1288 10567,1288 10648,1716 10878,1288 11168,1288 11039,1938 10836,1938 10918,1524 10690,1938 10532,1938 10451,1524 "/>
   <path class="fil3" d="M13188 1417l0 0 -14 69c-9,42 -19,79 -30,112 -12,33 -23,61 -35,86 -14,31 -28,56 -41,76 -13,20 -25,35 -36,47l252 0 77 -390 -173 0 0 0zm-371 390c42,-49 79,-107 109,-171 31,-65 54,-141 71,-228l24 -121 574 0 -103 520 108 0 -70 300 -179 0 34 -169 -490 0 -34 169 -178 0 48 -300 86 0 0 0z"/>
   <polygon class="fil3" points="14623,1287 14867,1287 14740,1938 14532,1938 14610,1537 14302,1938 14057,1938 14185,1287 14393,1287 14314,1688 14623,1287 "/>
   <polygon class="fil3" points="15694,1807 15795,1287 16003,1287 15898,1807 16008,1807 15940,2107 15760,2107 15793,1938 15228,1938 15356,1287 15564,1287 15461,1807 15694,1807 "/>
   <polygon class="fil3" points="17033,1287 17277,1287 17150,1938 16942,1938 17020,1537 16712,1938 16467,1938 16595,1287 16803,1287 16724,1688 17033,1287 "/>
   <polygon class="fil3" points="17843,1937 17635,1937 17763,1287 17971,1287 17923,1532 18147,1532 18195,1287 18402,1287 18274,1937 18066,1937 18121,1662 17897,1662 17843,1937 "/>
   <polygon class="fil3" points="20446,1287 20683,1287 20361,1606 20569,1939 20337,1939 20185,1662 20134,1939 19926,1939 20053,1287 20261,1287 20208,1541 20446,1287 "/>
   <polygon class="fil3" points="21620,1287 21864,1287 21737,1938 21530,1938 21608,1537 21300,1938 21054,1938 21183,1287 21391,1287 21311,1688 21620,1287 "/>
   <polygon class="fil3" points="24895,1809 24997,1287 25205,1287 25100,1809 25210,1809 25141,2109 24962,2109 24995,1939 24430,1939 24558,1287 24766,1287 24663,1809 24895,1809 "/>
   <polygon class="fil3" points="27064,1938 26856,1938 26984,1287 27192,1287 27144,1532 27368,1532 27416,1287 27624,1287 27495,1938 27287,1938 27342,1662 27118,1662 27064,1938 "/>
   <polygon class="fil3" points="28083,1417 28109,1287 28750,1287 28723,1418 28508,1418 28405,1937 28197,1937 28300,1417 28083,1417 "/>
   <path class="fil3" d="M19497 1689c-18,61 -44,109 -78,143 -33,34 -68,59 -104,76 -32,12 -63,21 -94,25 -15,2 -86,12 -157,1 -68,-11 -136,-42 -162,-64 -54,-47 -82,-110 -83,-189 -1,-9 -1,-18 0,-27 0,-8 1,-17 2,-26 8,-85 44,-164 107,-235 62,-71 157,-107 286,-107l12 0c91,0 157,14 199,42 41,29 69,60 83,94 6,13 10,27 12,41 3,14 4,27 4,38 0,5 0,9 0,13 0,4 0,8 -1,12l-200 0c0,-4 1,-8 1,-11 -1,-4 -1,-8 -1,-13 0,-4 0,-7 0,-11 -1,-3 -1,-7 -1,-10 -4,-19 -13,-35 -27,-50 -15,-14 -39,-22 -74,-23 -50,2 -88,20 -115,54 -28,34 -47,72 -59,113 -4,18 -7,37 -9,55 -2,17 -3,34 -3,49 0,7 1,16 2,24 1,9 2,18 5,27 6,21 18,41 35,59 18,18 44,28 80,29 7,0 17,-1 29,-4 12,-3 25,-9 38,-17 14,-9 27,-22 39,-39 12,-17 22,-40 29,-69l205 0 0 0z"/>
   <polygon class="fil3" points="22788,1288 23032,1288 22905,1939 22698,1939 22776,1538 22468,1939 22222,1939 22351,1288 22559,1288 22479,1689 22788,1288 "/>
   <path class="fil3" d="M22994 1043c0,0 -72,148 -262,148 -190,0 -262,-148 -262,-148l155 0c0,0 24,61 105,60 81,-1 106,-60 106,-60l158 0z"/>
   <path class="fil3" d="M26244 1552c1,-6 3,-22 3,-27 0,-78 -63,-103 -119,-103 -91,0 -152,49 -184,130l300 0zm141 190c-87,149 -245,199 -370,199 -171,0 -297,-58 -297,-225 0,-103 67,-428 447,-428 171,0 279,66 279,211 0,29 -5,76 -29,159l-496 0c-3,10 -7,33 -7,48 0,49 24,104 136,104 54,0 114,-24 140,-68l197 0z"/>
   <path class="fil3" d="M12108 1551c1,-6 3,-22 3,-26 0,-78 -63,-104 -119,-104 -91,0 -152,50 -184,130l300 0zm141 189c-87,148 -245,198 -370,198 -171,0 -297,-58 -297,-224 0,-102 67,-426 447,-426 171,0 279,66 279,210 0,29 -5,76 -29,158l-497 0c-2,11 -6,34 -6,49 0,48 24,103 136,103 54,0 114,-24 140,-68l197 0z"/>
   <path class="fil3" d="M29363 1643l0 0c-2,12 -2,25 -2,38 1,44 11,79 32,104 21,24 51,37 90,39 47,-2 85,-19 112,-52 27,-33 46,-70 58,-110 7,-21 11,-41 14,-62 3,-20 4,-38 4,-53 -1,-54 -14,-91 -39,-111 -25,-21 -53,-32 -84,-33 -10,1 -23,4 -38,7 -15,4 -30,11 -45,21 -20,14 -39,35 -57,62 -18,28 -31,66 -40,113 -2,13 -4,25 -5,37l0 0zm59 -356l-12 58c41,-36 81,-58 118,-68 38,-10 71,-15 100,-15l12 0c79,0 140,25 182,74 43,49 65,112 66,188 0,21 -1,43 -3,65 -2,22 -7,45 -13,67 -19,77 -55,149 -112,211 -98,105 -247,96 -247,96 -37,-1 -73,-8 -106,-20 -34,-12 -61,-31 -81,-56l-57 293 -208 0 174 -893 187 0 0 0z"/>
  </g>
  <path class="fil4" d="M36234 1283l-108 721 -145 0 91 -610 -205 0 -32 217c-22,145 -58,247 -108,305 -50,59 -120,88 -209,88l-21 0 17 -111 19 0c44,0 77,-20 100,-62 22,-41 41,-114 57,-220l49 -328 495 0zm484 404l-268 0 -31 206 318 0 -16 111 -463 0 108 -721 462 0 -17 111 -317 0 -28 182 268 0 -16 111zm699 -293l-207 0 -91 610 -145 0 91 -610 -202 0 16 -111 554 0 -16 111z"/>
  <path class="fil4" d="M33252 3366l-1794 0 17 -262c37,-40 88,-84 152,-133 66,-50 142,-102 231,-160 53,-35 117,-73 191,-113 75,-41 159,-86 253,-134 105,-53 186,-102 243,-143 57,-40 109,-90 158,-151 33,-39 59,-89 81,-149 22,-59 36,-143 44,-253 10,-160 -26,-277 -106,-352 -81,-75 -189,-112 -324,-112 -83,0 -162,17 -239,49 -76,32 -134,77 -175,134 6,41 14,90 24,146 10,56 13,111 10,164 -4,49 -27,92 -69,130 -44,37 -105,56 -184,56 -64,0 -112,-22 -144,-66 -32,-44 -45,-102 -40,-177 4,-69 28,-138 71,-207 43,-71 102,-135 177,-193 74,-58 165,-104 270,-140 106,-35 219,-53 339,-53 261,0 466,58 611,175 147,117 214,273 201,468 -6,94 -25,179 -57,256 -33,76 -82,144 -148,203 -71,65 -154,121 -248,167 -93,47 -236,112 -428,195 -115,50 -221,102 -321,156 -99,54 -181,107 -246,158l1472 0 -22 341z"/>
  <path class="fil4" d="M34909 2560c88,74 159,170 212,286 54,115 75,261 63,434 -20,305 -139,556 -360,753 -221,200 -490,298 -810,298 -246,0 -452,-58 -615,-176 -163,-118 -239,-254 -229,-410 5,-71 26,-135 65,-189 39,-54 95,-81 169,-81 85,0 148,23 190,67 41,45 61,93 57,146 -3,46 -14,101 -34,170 -21,68 -35,119 -46,152 10,8 28,22 52,39 25,17 54,33 88,49 35,16 79,29 132,42 52,12 112,18 183,18 90,0 177,-18 259,-56 83,-36 155,-92 215,-163 66,-80 116,-170 154,-271 37,-101 60,-230 70,-386 13,-199 -31,-366 -133,-496 -102,-131 -244,-196 -425,-196 -112,0 -220,21 -320,64 -101,42 -193,114 -277,214l-139 -55 283 -1530 1516 0 -25 377 -1345 0 -165 893c66,-44 152,-88 258,-132 106,-44 222,-65 346,-65 102,0 208,15 317,46 108,33 206,86 294,158l0 0z"/>
 </g>
</svg>
