<?xml version="1.0" encoding="UTF-8"?>
<svg id="_Слой_2" data-name="Слой_2" xmlns="http://www.w3.org/2000/svg" viewBox="0 0 1292.29 671.21">
  <defs>
    <style>
      .cls-1 {
        stroke: #07b3e9;
      }

      .cls-1, .cls-2 {
        fill: none;
        stroke-miterlimit: 10;
        stroke-width: 8px;
      }

      .cls-3 {
        letter-spacing: 0em;
      }

      .cls-3, .cls-4, .cls-5, .cls-6, .cls-7 {
        fill: #07b3e9;
      }

      .cls-3, .cls-8, .cls-5, .cls-7 {
        isolation: isolate;
      }

      .cls-3, .cls-5, .cls-6, .cls-7 {
        font-weight: 700;
      }

      .cls-3, .cls-6, .cls-7 {
        font-family: Organetto-BoldCnd, Organetto;
        font-size: 87.91px;
      }

      .cls-5 {
        font-family: BrandonGrotesque-Bold, 'Brandon Grotesque';
        font-size: 68.88px;
      }

      .cls-2 {
        stroke: #eb5c9d;
      }

      .cls-9 {
        fill: #e94b94;
      }

      .cls-10 {
        fill: #eb5c9d;
      }

      .cls-11 {
        fill: #0fb3e5;
      }
    </style>
  </defs>
  <g id="_Слой_2-2" data-name="_Слой_2">
    <path class="cls-4" d="M682.15,301.48c68.22,0,192.91-3.08,276.29-127.05,8.36-12.43-9.16,9.81,0,0C1038.64,41.25,1149.5,2.4,1213.47,2.4h.29c-63.97,0-201.22,38.84-281.42,172.02h0c-83.39,123.97-208.07,127.05-276.29,127.05"/>
    <path class="cls-11" d="M1001.42,229.3c0,6.56,2.77,10.04,7.97,10.04s5.2-.7,8.32-1.72l1.36,4.49c-3.13,1.72-6.56,2.42-11.05,2.42-9.33,0-13.82-5.2-13.82-14.88s0-2.77,0-4.14.7-2.77,1.36-4.14c.7-1.36,1.36-2.77,2.42-3.79,1.06-1.06,2.07-2.07,4.14-2.42,1.72-.7,3.79-1.06,5.9-1.06,3.48,0,6.56.7,8.98,1.36l-1.06,4.84c-2.07-.7-4.49-.7-6.56-.7s-4.84.7-6.21,2.77c-1.36,2.07-2.07,4.14-2.07,7.62h0v-.7h.35-.04Z"/>
    <path class="cls-11" d="M1001.42,229.3c0,6.56,2.77,10.04,7.97,10.04s5.2-.7,8.32-1.72l1.36,4.49c-3.13,1.72-6.56,2.42-11.05,2.42-9.33,0-13.82-5.2-13.82-14.88s0-2.77,0-4.14.7-2.77,1.36-4.14c.7-1.36,1.36-2.77,2.42-3.79,1.06-1.06,2.07-2.07,4.14-2.42,1.72-.7,3.79-1.06,5.9-1.06,3.48,0,6.56.7,8.98,1.36l-1.06,4.84c-2.07-.7-4.49-.7-6.56-.7s-4.84.7-6.21,2.77c-1.36,2.07-2.07,4.14-2.07,7.62h0v-.7h.35-.04Z"/>
    <path class="cls-11" d="M1050.55,244.18h-6.56v-21.09h0l-3.79,6.21c-5.55,8.63-8.98,13.82-9.69,14.88h-6.21v-29.41h6.56v20.74h0s.7-1.06,1.36-2.07c.7-1.06,1.06-2.07,1.72-2.42,5.2-7.62,8.32-12.81,10.39-15.89h6.56v29.41h0s-.35-.35-.35-.35Z"/>
    <path class="cls-11" d="M1050.55,244.18h-6.56v-21.09h0l-3.79,6.21c-5.55,8.63-8.98,13.82-9.69,14.88h-6.21v-29.41h6.56v20.74h0s.7-1.06,1.36-2.07c.7-1.06,1.06-2.07,1.72-2.42,5.2-7.62,8.32-12.81,10.39-15.89h6.56v29.41h0s-.35-.35-.35-.35Z"/>
    <path class="cls-11" d="M1064.73,244.18v-24.92h-10.39v-4.84h27.34v4.84h-10.39v24.92h-6.56Z"/>
    <path class="cls-11" d="M1064.73,244.18v-24.92h-10.39v-4.84h27.34v4.84h-10.39v24.92h-6.56Z"/>
    <path class="cls-11" d="M1112.46,244.18h-6.56v-21.09h0l-3.79,6.21c-5.55,8.63-8.98,13.82-9.69,14.88h-6.21v-29.41h6.56v20.74h0s.7-1.06,1.36-2.07c.7-1.06,1.06-2.07,1.72-2.42,5.2-7.62,8.32-12.81,10.39-15.89h6.56v29.41h0s-.35-.35-.35-.35Z"/>
    <path class="cls-11" d="M1112.46,244.18h-6.56v-21.09h0l-3.79,6.21c-5.55,8.63-8.98,13.82-9.69,14.88h-6.21v-29.41h6.56v20.74h0s.7-1.06,1.36-2.07c.7-1.06,1.06-2.07,1.72-2.42,5.2-7.62,8.32-12.81,10.39-15.89h6.56v29.41h0s-.35-.35-.35-.35Z"/>
    <path class="cls-10" d="M1144.24,244.18h-6.56v-24.92h-8.63v3.48c-.7,6.91-1.06,11.76-1.72,14.18-1.06,4.14-3.48,6.91-6.56,8.32-.7,0-1.72.7-2.77.7l-1.72-4.49c3.13-1.06,4.84-2.77,5.2-5.2.7-2.07,1.06-6.91,1.36-14.18v-7.62h21.09v29.76h.35l-.04-.04Z"/>
    <path class="cls-10" d="M1144.24,244.18h-6.56v-24.92h-8.63v3.48c-.7,6.91-1.06,11.76-1.72,14.18-1.06,4.14-3.48,6.91-6.56,8.32-.7,0-1.72.7-2.77.7l-1.72-4.49c3.13-1.06,4.84-2.77,5.2-5.2.7-2.07,1.06-6.91,1.36-14.18v-7.62h21.09v29.76h.35l-.04-.04Z"/>
    <path class="cls-10" d="M1175.37,224.46v15.23h3.79v3.79c-1.36.7-3.48,1.36-5.9,1.36s-2.42,0-3.13-.7c-.7-.7-1.06-1.36-1.06-2.77h0c-3.13,2.42-6.56,3.79-10.39,3.79s-3.13,0-4.49-.7c-1.06-.7-2.07-1.36-2.77-2.07s-1.06-1.72-1.36-2.77c0-.7-.7-2.07-.7-2.77,0-2.77,1.06-4.84,3.48-6.56,2.07-1.36,5.2-2.07,8.32-2.42l7.26-.7v-1.72c0-2.07-.7-3.79-1.36-4.84-.7-.7-2.42-1.36-4.84-1.36s-6.21.7-9.33,1.72c0-1.06-.7-2.42-1.06-4.14,3.79-1.72,7.97-2.42,12.11-2.42s6.21.7,7.97,2.07c1.76,1.36,2.77,4.14,2.77,7.62h0v.7l.7-.35v.04ZM1168.81,230.36l-6.91.7c-3.48,0-5.2,1.72-5.2,4.49s1.72,4.84,4.84,4.84,4.84-1.06,7.26-3.48v-6.56h0Z"/>
    <path class="cls-10" d="M1175.37,224.46v15.23h3.79v3.79c-1.36.7-3.48,1.36-5.9,1.36s-2.42,0-3.13-.7c-.7-.7-1.06-1.36-1.06-2.77h0c-3.13,2.42-6.56,3.79-10.39,3.79s-3.13,0-4.49-.7c-1.06-.7-2.07-1.36-2.77-2.07s-1.06-1.72-1.36-2.77c0-.7-.7-2.07-.7-2.77,0-2.77,1.06-4.84,3.48-6.56,2.07-1.36,5.2-2.07,8.32-2.42l7.26-.7v-1.72c0-2.07-.7-3.79-1.36-4.84-.7-.7-2.42-1.36-4.84-1.36s-6.21.7-9.33,1.72c0-1.06-.7-2.42-1.06-4.14,3.79-1.72,7.97-2.42,12.11-2.42s6.21.7,7.97,2.07c1.76,1.36,2.77,4.14,2.77,7.62h0v.7l.7-.35v.04ZM1168.81,230.36l-6.91.7c-3.48,0-5.2,1.72-5.2,4.49s1.72,4.84,4.84,4.84,4.84-1.06,7.26-3.48v-6.56h0Z"/>
    <path class="cls-10" d="M1207.91,214.77v4.49h-16.25v6.91h8.32c3.79,0,6.56.7,8.32,2.07,2.07,1.72,3.13,3.79,3.13,6.56s-1.06,5.2-3.13,6.56c-2.07,1.36-4.84,2.07-7.97,2.07h-15.54v-29.06h22.81l.35.35-.04.04ZM1199.23,230.67h-7.26v8.98h7.97c1.72,0,3.13,0,4.14-1.06,1.01-1.06,1.72-2.07,1.72-3.48,0-2.77-2.07-4.49-6.21-4.49h-.35v.04Z"/>
    <path class="cls-10" d="M1207.91,214.77v4.49h-16.25v6.91h8.32c3.79,0,6.56.7,8.32,2.07,2.07,1.72,3.13,3.79,3.13,6.56s-1.06,5.2-3.13,6.56c-2.07,1.36-4.84,2.07-7.97,2.07h-15.54v-29.06h22.81l.35.35-.04.04ZM1199.23,230.67h-7.26v8.98h7.97c1.72,0,3.13,0,4.14-1.06,1.01-1.06,1.72-2.07,1.72-3.48,0-2.77-2.07-4.49-6.21-4.49h-.35v.04Z"/>
    <circle class="cls-11" cx="1209.27" cy="265.27" r="4.49"/>
    <circle class="cls-11" cx="1209.27" cy="265.27" r="4.49"/>
    <circle class="cls-11" cx="1228.29" cy="252.11" r="5.2"/>
    <circle class="cls-11" cx="1228.29" cy="252.11" r="5.2"/>
    <path class="cls-11" d="M1213.76,195.4c0-2.42-2.07-4.49-4.49-4.49s-4.49,2.07-4.49,4.49,2.07,4.49,4.49,4.49,4.49-2.07,4.49-4.49h0Z"/>
    <path class="cls-11" d="M1213.76,195.4c0-2.42-2.07-4.49-4.49-4.49s-4.49,2.07-4.49,4.49,2.07,4.49,4.49,4.49,4.49-2.07,4.49-4.49h0Z"/>
    <circle class="cls-11" cx="1228.29" cy="208.57" r="5.2"/>
    <circle class="cls-11" cx="1228.29" cy="208.57" r="5.2"/>
    <circle class="cls-10" cx="1236.26" cy="230.01" r="6.21"/>
    <circle class="cls-10" cx="1236.26" cy="230.01" r="6.21"/>
    <g class="cls-8">
      <text class="cls-7" transform="translate(270.65 141.99)"><tspan x="0" y="0">С</tspan></text>
    </g>
    <g class="cls-8">
      <text class="cls-3" transform="translate(318.61 141.99)"><tspan x="0" y="0">т</tspan></text>
      <text class="cls-6" transform="translate(359.31 141.99)"><tspan x="0" y="0">омcити.рф</tspan></text>
    </g>
    <g class="cls-8">
      <g class="cls-8">
        <g class="cls-8">
          <text class="cls-5" transform="translate(265.02 210.94) scale(.88 .98) skewX(-12.8)"><tspan x="0" y="0">СТОМАТОЛОГИЯ</tspan></text>
        </g>
      </g>
    </g>
    <path class="cls-1" d="M48.65,4h1194.98c24.53,0,44.65,21.69,44.65,48.81v198.86c0,27.12-20.19,48.81-44.65,48.81H48.65c-24.53,0-44.65-21.69-44.65-48.81V52.81C4,25.69,24.19,4,48.65,4h0Z"/>
    <path class="cls-2" d="M1089.93,8.82h150.57c24.71,0,44.53,21.09,44.53,47v192.23c0,25.91-19.77,47-44.53,47H51.31c-24.71,0-44.53-21.09-44.53-47V55.82c.06-25.91,19.83-47,44.53-47h1038.62"/>
    <path class="cls-9" d="M68.21,60.1c-10.3,2.77-16.33,9.94-21.33,25.07-1.14,3.56-2.17,7.35-2.17,8.5,0,1.21-.24,2.11-.42,1.93-.24-.12-.36.12-.36.42s-.42,3.01-.9,5.97c-1.75,9.58-2.35,19.71-2.29,35.13,0,10.49.3,16.21.9,20.97,1.02,8.5,3.31,19.52,3.86,18.74.24-.3.3-.18.12.48-.12.54,0,1.81.24,2.77s1.21,4.34,2.11,7.47c.9,3.13,2.29,7.53,3.07,9.76s1.75,4.88,2.17,5.91c.3,1.02.84,2.29,1.08,2.77,1.45,3.19,2.77,6.33,2.77,6.63,0,.42,4.4,9.16,4.7,9.46.18.12.72,1.08,1.27,2.11s1.75,2.89,2.65,4.22c.9,1.27,1.99,2.83,2.47,3.5.42.6,1.14,1.51,1.51,1.93s1.51,1.63,2.47,2.71c2.11,2.17,5.66,4.64,8.98,6.21,2.95,1.33,9.22,1.63,12.78.54,4.82-1.45,7.71-3.62,10.79-8.08,1.75-2.65,3.98-7.29,4.28-9.1,0-.3.18-.72.36-.9.24-.42,3.01-10.97,4.16-15.85.78-3.25,2.35-7.77,3.74-10.43,2.29-4.64,4.64-6.39,9.22-7.05,4.82-.66,8.74,1.45,11.39,6.03,1.45,2.59,3.37,9.04,4.28,14.46,2.77,16.87,3.8,21.33,5.85,25.49,2.77,5.72,7.59,8.26,13.56,7.11,1.33-.24,2.95-.66,3.43-.84,2.17-.9,6.45-3.19,6.93-3.62.3-.3,1.33-1.02,2.23-1.75,4.4-3.31,11.45-11.45,15.25-17.72.6-.96,1.33-1.99,1.57-2.35,1.08-1.14,7.95-14.82,9.88-19.4.66-1.69,1.39-3.43,1.63-3.98s1.33-3.43,2.47-6.51c1.75-5,2.77-8.08,4.76-15.13.66-2.29,3.07-14.88,3.98-20.49.78-5.18,1.14-27.48.54-35.13-.84-10.3-2.83-20.91-5.42-28.62-4.64-13.8-11.69-22.18-20.73-24.71-5.6-1.57-14.28-1.08-22.06,1.14-6.57,1.87-10.91,3.01-12.35,3.31-.9.18-1.81.48-2.11.6-.24.12-.72.3-1.14.3-.36,0-1.93.36-3.43.72-1.57.3-3.31.66-3.98.72-1.75.24-13.2.3-14.22,0-.54-.12-2.29-.54-3.98-.78-1.69-.3-3.19-.78-3.5-.96-.24-.24-.78-.42-1.33-.42-.84,0-5.18-1.21-19.4-5.48-14.82-4.46-25.13-5.72-32.06-3.8h-.24ZM178.61,69.68s-.72,4.88-1.45,6.45c-.24.54-.72,1.81-1.14,2.83-4.1,10.97-11.99,21.39-22,29.23-1.57,1.14-3.01,2.35-3.31,2.59-1.69,1.39-9.34,5.24-12.78,6.45-7.35,2.65-13.44,3.31-20.37,2.23-12.41-1.87-25.31-8.56-31.03-16.21-1.57-1.99-1.08-2.59,1.45-1.75.9.3,2.17.66,2.65.72.54.12,1.87.36,3.01.72,3.31.78,14.52.24,17.72-.9,5.18-1.87,10.97-5.12,13.56-7.53.36-.36,1.93-1.75,3.43-3.01,1.51-1.33,3.74-3.19,4.88-4.22,10.55-9.1,14.34-11.63,20.73-13.92,2.89-1.02,12.59-3.19,16.27-3.68,2.35-.3,7.95-.3,8.26,0h.12ZM202.41,87.58c3.56,11.63,5,22.96,5,38.33,0,9.94-.36,15.91-1.39,23.38-2.53,17.96-3.86,24.71-7.89,39.11-1.08,3.8-1.99,7.17-2.05,7.47-.24,1.27-3.37,8.32-5.3,11.87-3.37,6.27-7.95,13.38-11.63,17.96-3.37,4.22-10.55,10.97-11.57,10.97-.3,0-.66.24-.72.54-.24.72-5.3,2.29-7.47,2.29-5.06,0-9.76-4.4-12.17-11.33l-.72-2.17,1.33.12c.72,0,1.33.24,1.33.36,0,.48,5.18,2.65,7.05,2.95s5.97-.72,7.89-1.99c5.06-3.37,12.29-12.53,17.42-22.06,14.04-26.09,21.69-59.06,21.03-90.51-.12-5.91-.3-11.99-.48-13.5-.3-3.98-1.57-13.5-2.17-16.51-.24-1.33-.48-2.83-.48-3.25,0-1.93,1.45,1.02,2.95,6.03l.06-.06ZM211.87,158.45c-.12.36-.3.24-.3-.3s.12-.78.24-.6c.12.12.18.54,0,.9h.06ZM128.23,177.67c1.27.66,2.95,1.75,3.68,2.53,2.65,2.59,6.09,8.74,6.09,10.79,0,.72-.48.54-2.53-1.14-3.5-2.83-7.11-4.16-11.03-3.92-2.59.12-3.31.36-4.64,1.51-4.28,3.62-7.95,11.45-12.05,25.67-3.31,11.45-6.27,17.66-10,21.15-3.19,2.95-5.79,3.92-9.82,3.68-4.28-.3-7.83-2.17-12.17-6.45-3.25-3.19-7.05-7.89-7.05-8.8,0-.24-.18-.54-.42-.6-.66-.24-4.7-7.17-4.7-8.01,0-.96.78-.9,1.33,0,.42.84,5.24,5.66,7.71,7.83,3.8,3.31,10.3,6.27,13.56,6.27,4.58,0,8.92-3.19,10.55-7.71.48-1.33,1.02-2.65,1.21-3.01.24-.36,1.27-3.74,2.35-7.47,2.35-8.26,4.46-14.52,5.6-16.99.48-1.02,1.33-2.95,1.87-4.22,2.35-5.24,6.03-9.82,9.04-11.15,2.35-1.08,2.71-1.14,6.03-1.14,2.47,0,3.62.18,5.42,1.14v.06Z"/>
    <g>
      <path class="cls-11" d="M994.27,266.26h.04s3.27-6.56,3.27-6.56h2.33l-1.33,8.9h-1.79l.9-6.07h-.03s-3.11,6.07-3.11,6.07h-1.21l-1.29-6.09h-.04l-.91,6.09h-1.79l1.33-8.9h2.34l1.28,6.56Z"/>
      <path class="cls-11" d="M1002.92,268.73c-.95,0-1.66-.31-2.15-.92-.48-.61-.65-1.39-.51-2.33l.04-.24c.15-1.03.54-1.85,1.17-2.46.63-.61,1.41-.92,2.36-.91.86,0,1.49.28,1.9.83.41.55.55,1.28.41,2.19l-.13.92h-3.95v.03c-.06.47.02.84.22,1.12.2.28.55.41,1.04.41.38,0,.73-.04,1.03-.12.31-.08.62-.21.93-.37l.32,1.1c-.3.22-.69.4-1.16.54s-.98.22-1.51.22ZM1003.63,263.24c-.34,0-.63.12-.86.37-.23.25-.41.57-.51.97v.04h2.18l.02-.13c.06-.4.03-.71-.09-.92-.12-.22-.37-.32-.72-.32Z"/>
      <path class="cls-11" d="M1012.76,266.11h-.5l-.37,2.49h-1.77l.37-2.49h-.49l-1.68,2.49h-2.29l2.7-3.58-1.6-3.04h2.25l.99,2.49h.35l.37-2.49h1.77l-.37,2.49h.37l1.73-2.49h2.21l.02.03-2.49,3,1.62,3.58h-2.28l-.94-2.49Z"/>
      <path class="cls-11" d="M1017.17,267.23h0s.19,0,.19,0c.31,0,.56-.2.76-.59.2-.39.39-1.04.57-1.94l.54-2.71h4.9l-.79,5.25h.92l-.54,3.56h-1.79l.33-2.19h-3.93l-.33,2.19h-1.79l.54-3.56h.42ZM1020.46,264.69c-.11.55-.23,1.03-.37,1.45s-.3.78-.48,1.09h1.94l.57-3.82h-1.41l-.26,1.28Z"/>
      <path class="cls-11" d="M1027.92,265.82v.36s.05,0,.05,0l1.9-4.21h1.92l-3.82,7.6c-.26.47-.57.87-.94,1.19-.37.32-.88.49-1.52.49-.14,0-.28-.01-.41-.04-.13-.02-.28-.06-.45-.1l.4-1.3s.1.02.17.02.12.01.17.01c.28,0,.52-.07.7-.22.19-.15.34-.33.46-.54l.28-.51-1.36-6.61h1.92l.54,3.84Z"/>
      <path class="cls-11" d="M1037.23,268.6h-1.79l.39-2.57h-2.18l-.39,2.57h-1.79l.99-6.61h1.79l-.4,2.68h2.18l.4-2.68h1.79l-.99,6.61Z"/>
      <path class="cls-11" d="M1042.48,268.6c-.04-.15-.08-.31-.1-.48-.02-.17-.03-.34-.02-.52-.23.33-.51.59-.85.81-.33.21-.71.32-1.12.32-.67,0-1.17-.18-1.5-.54-.33-.36-.45-.85-.36-1.45.1-.67.42-1.18.97-1.53.55-.34,1.3-.52,2.27-.52h1l.08-.53c.05-.33,0-.58-.14-.75-.14-.17-.38-.25-.71-.25-.28,0-.51.07-.69.21-.19.14-.29.33-.33.58h-1.72v-.04c.06-.58.37-1.07.94-1.46.57-.4,1.27-.59,2.11-.59.77,0,1.37.2,1.82.61s.61.97.5,1.71l-.41,2.73c-.05.32-.07.62-.06.88s.04.53.1.81h-1.78ZM1041.03,267.41c.3,0,.58-.08.86-.23.27-.16.47-.34.59-.54l.14-.93h-1c-.36,0-.66.1-.89.29-.23.19-.37.42-.41.68-.04.23,0,.41.13.54.13.13.32.19.57.19Z"/>
      <path class="cls-11" d="M1051.75,265.48c-.15,1.01-.5,1.81-1.03,2.39-.53.58-1.21.87-2.03.87-.34,0-.63-.07-.88-.21-.25-.14-.45-.33-.61-.6l-.48,3.22h-1.78l1.37-9.16h1.61v.78c.23-.29.5-.52.79-.67s.63-.23,1-.23c.79,0,1.36.32,1.74.97.37.65.48,1.48.33,2.52l-.02.13ZM1049.98,265.35c.09-.64.07-1.15-.08-1.53-.15-.38-.44-.57-.87-.57-.26,0-.5.06-.7.17-.21.12-.39.28-.53.49l-.43,2.86c.08.19.21.34.39.43s.4.15.68.15c.42,0,.75-.17,1.01-.51s.44-.8.53-1.37l.02-.13Z"/>
      <path class="cls-11" d="M1052.61,265.23c.15-1.02.54-1.84,1.18-2.45.64-.61,1.45-.92,2.43-.92s1.65.32,2.13.95.64,1.44.5,2.41l-.02.13c-.16,1.03-.56,1.85-1.19,2.46s-1.45.91-2.43.91-1.65-.32-2.13-.95c-.48-.63-.64-1.44-.49-2.42l.02-.13ZM1054.37,265.36c-.1.62-.07,1.11.09,1.47s.48.53.95.53c.44,0,.8-.19,1.08-.56s.47-.85.56-1.44l.02-.13c.09-.61.05-1.09-.11-1.45-.16-.36-.47-.54-.94-.54-.44,0-.81.19-1.09.57-.28.38-.46.85-.54,1.43l-.02.13Z"/>
      <path class="cls-11" d="M1059.83,267.23h0s.19,0,.19,0c.31,0,.56-.2.76-.59.2-.39.39-1.04.57-1.94l.54-2.71h4.9l-.79,5.25h.92l-.54,3.56h-1.79l.33-2.19h-3.93l-.33,2.19h-1.79l.54-3.56h.42ZM1063.13,264.69c-.11.55-.23,1.03-.37,1.45s-.3.78-.48,1.09h1.94l.57-3.82h-1.41l-.26,1.28Z"/>
      <path class="cls-11" d="M1073.39,268.6h-1.79l.39-2.57h-2.18l-.39,2.57h-1.79l.99-6.61h1.79l-.4,2.68h2.18l.4-2.68h1.79l-.99,6.61Z"/>
      <path class="cls-11" d="M1078.64,268.6c-.04-.15-.08-.31-.1-.48-.02-.17-.03-.34-.02-.52-.23.33-.51.59-.85.81-.33.21-.71.32-1.12.32-.67,0-1.17-.18-1.5-.54-.33-.36-.45-.85-.36-1.45.1-.67.42-1.18.97-1.53.55-.34,1.3-.52,2.27-.52h1l.08-.53c.05-.33,0-.58-.14-.75-.14-.17-.38-.25-.71-.25-.28,0-.51.07-.69.21-.19.14-.29.33-.33.58h-1.72v-.04c.06-.58.37-1.07.94-1.46.57-.4,1.27-.59,2.11-.59.77,0,1.37.2,1.82.61s.61.97.5,1.71l-.41,2.73c-.05.32-.07.62-.06.88s.04.53.1.81h-1.78ZM1077.19,267.41c.3,0,.58-.08.86-.23.27-.16.47-.34.59-.54l.14-.93h-1c-.36,0-.66.1-.89.29-.23.19-.37.42-.41.68-.04.23,0,.41.13.54.13.13.32.19.57.19Z"/>
      <path class="cls-11" d="M1088.03,261.99l-.99,6.61h-1.77l.35-2.32h-1.08l-1.64,2.32h-1.8l1.86-2.63c-.37-.18-.65-.42-.83-.74-.18-.31-.24-.66-.17-1.05.1-.66.43-1.2,1-1.6.57-.4,1.29-.6,2.17-.6h2.91ZM1083.74,264.23c-.04.24.02.44.17.6.15.17.39.25.72.25h1.17l.26-1.73h-1.14c-.32,0-.59.09-.81.27-.22.18-.34.38-.38.61Z"/>
      <path class="cls-11" d="M1094.6,267.36c.3,0,.56-.09.77-.28.22-.19.35-.43.4-.74h1.62v.04c-.08.69-.41,1.26-.98,1.7-.57.44-1.24.66-2.01.66-.94,0-1.64-.32-2.1-.95-.46-.63-.61-1.43-.47-2.39l.02-.18c.15-1.01.54-1.82,1.16-2.43s1.42-.92,2.4-.92c.78,0,1.39.23,1.82.7.44.47.59,1.08.46,1.83v.03h-1.64c.05-.35,0-.64-.14-.86-.14-.22-.38-.33-.71-.33-.44,0-.8.19-1.05.56-.26.37-.43.84-.52,1.41l-.02.18c-.09.61-.07,1.09.07,1.44.14.35.44.53.92.53Z"/>
      <path class="cls-11" d="M1100.96,268.73c-.95,0-1.66-.31-2.15-.92-.48-.61-.65-1.39-.51-2.33l.04-.24c.15-1.03.54-1.85,1.17-2.46.63-.61,1.41-.92,2.36-.91.86,0,1.49.28,1.9.83.41.55.55,1.28.41,2.19l-.13.92h-3.95v.03c-.06.47.02.84.22,1.12.2.28.55.41,1.04.41.38,0,.73-.04,1.03-.12.31-.08.62-.21.93-.37l.32,1.1c-.3.22-.69.4-1.16.54s-.98.22-1.51.22ZM1101.67,263.24c-.34,0-.63.12-.86.37-.23.25-.41.57-.51.97v.04h2.18l.02-.13c.06-.4.03-.71-.09-.92-.12-.22-.37-.32-.72-.32Z"/>
      <path class="cls-11" d="M1110.98,263.35h-2.12l-.78,5.25h-1.79l.78-5.25h-2.08l.2-1.36h5.99l-.2,1.36Z"/>
      <path class="cls-11" d="M1113.69,264.12h1.25c.85,0,1.51.21,1.97.62.46.41.65.95.55,1.61-.11.7-.44,1.25-1.01,1.65-.56.4-1.29.6-2.19.6h-3.03l.99-6.61h1.79l-.32,2.14ZM1113.49,265.49l-.26,1.74h1.24c.35,0,.63-.08.84-.25.21-.17.34-.37.38-.63.04-.26-.02-.47-.17-.63-.15-.16-.41-.24-.78-.24h-1.24Z"/>
      <path class="cls-11" d="M1127.95,261.99l-.99,6.61h-1.78l.78-5.23h-1.59l-.21,1.44c-.2,1.35-.55,2.32-1.03,2.91-.48.59-1.21.88-2.19.88h-.29l.19-1.41h.2c.39,0,.68-.18.86-.52.18-.34.34-.97.47-1.87l.42-2.82h5.15Z"/>
      <path class="cls-11" d="M1132.16,268.6c-.04-.15-.08-.31-.1-.48-.02-.17-.03-.34-.02-.52-.23.33-.51.59-.85.81-.33.21-.71.32-1.12.32-.67,0-1.17-.18-1.5-.54-.33-.36-.45-.85-.36-1.45.1-.67.42-1.18.97-1.53.55-.34,1.3-.52,2.27-.52h1l.08-.53c.05-.33,0-.58-.14-.75-.14-.17-.38-.25-.71-.25-.28,0-.51.07-.69.21-.19.14-.29.33-.33.58h-1.72v-.04c.06-.58.37-1.07.94-1.46.57-.4,1.27-.59,2.11-.59.77,0,1.37.2,1.82.61s.61.97.5,1.71l-.41,2.73c-.05.32-.07.62-.06.88s.04.53.1.81h-1.78ZM1130.7,267.41c.3,0,.58-.08.86-.23.27-.16.47-.34.59-.54l.14-.93h-1c-.36,0-.66.1-.89.29-.23.19-.37.42-.41.68-.04.23,0,.41.13.54.13.13.32.19.57.19Z"/>
      <path class="cls-11" d="M1138.97,261.86c.89,0,1.56.32,2.01.95s.6,1.44.46,2.41l-.02.13c-.16,1.03-.56,1.85-1.19,2.46s-1.44.91-2.43.91-1.66-.32-2.13-.95-.64-1.44-.49-2.42l.02-.13.02-.1.21-1.44c.21-1.36.6-2.35,1.19-2.95s1.41-.91,2.48-.94c.54-.01.94-.07,1.21-.18.27-.11.43-.29.47-.54h1.38v.04c-.1.81-.39,1.37-.89,1.65-.49.29-1.24.44-2.23.46-.6.01-1.08.14-1.42.39s-.54.57-.57.99l.02.03c.24-.22.52-.4.87-.55.34-.15.69-.22,1.05-.22ZM1138.62,263.24c-.44,0-.81.19-1.09.57-.28.38-.46.85-.55,1.43l-.02.13c-.1.62-.07,1.11.09,1.47s.48.53.95.53c.44,0,.8-.19,1.08-.56s.47-.85.56-1.44l.02-.13c.09-.61.05-1.09-.11-1.45-.16-.36-.47-.54-.94-.54Z"/>
      <path class="cls-11" d="M1142.23,265.23c.15-1.02.54-1.84,1.18-2.45.64-.61,1.45-.92,2.43-.92s1.65.32,2.13.95.64,1.44.5,2.41l-.02.13c-.16,1.03-.56,1.85-1.19,2.46s-1.45.91-2.43.91-1.65-.32-2.13-.95c-.48-.63-.64-1.44-.49-2.42l.02-.13ZM1143.99,265.36c-.1.62-.07,1.11.09,1.47s.48.53.95.53c.44,0,.8-.19,1.08-.56s.47-.85.56-1.44l.02-.13c.09-.61.05-1.09-.11-1.45-.16-.36-.47-.54-.94-.54-.44,0-.81.19-1.09.57-.28.38-.46.85-.54,1.43l-.02.13Z"/>
      <path class="cls-11" d="M1155.5,265.48c-.15,1.01-.5,1.81-1.03,2.39-.53.58-1.21.87-2.03.87-.34,0-.63-.07-.88-.21-.25-.14-.45-.33-.61-.6l-.48,3.22h-1.78l1.37-9.16h1.61v.78c.23-.29.5-.52.79-.67s.63-.23,1-.23c.79,0,1.36.32,1.74.97.37.65.48,1.48.33,2.52l-.02.13ZM1153.74,265.35c.09-.64.07-1.15-.08-1.53-.15-.38-.44-.57-.87-.57-.26,0-.5.06-.7.17-.21.12-.39.28-.53.49l-.43,2.86c.08.19.21.34.39.43s.4.15.68.15c.42,0,.75-.17,1.01-.51s.44-.8.53-1.37l.02-.13Z"/>
      <path class="cls-11" d="M1160.03,268.6c-.04-.15-.08-.31-.1-.48-.02-.17-.03-.34-.02-.52-.23.33-.51.59-.85.81-.33.21-.71.32-1.12.32-.67,0-1.17-.18-1.5-.54-.33-.36-.45-.85-.36-1.45.1-.67.42-1.18.97-1.53.55-.34,1.3-.52,2.27-.52h1l.08-.53c.05-.33,0-.58-.14-.75-.14-.17-.38-.25-.71-.25-.28,0-.51.07-.69.21-.19.14-.29.33-.33.58h-1.72v-.04c.06-.58.37-1.07.94-1.46.57-.4,1.27-.59,2.11-.59.77,0,1.37.2,1.82.61s.61.97.5,1.71l-.41,2.73c-.05.32-.07.62-.06.88s.04.53.1.81h-1.78ZM1158.58,267.41c.3,0,.58-.08.86-.23.27-.16.47-.34.59-.54l.14-.93h-1c-.36,0-.66.1-.89.29-.23.19-.37.42-.41.68-.04.23,0,.41.13.54.13.13.32.19.57.19Z"/>
      <path class="cls-11" d="M1169.15,263.35h-2.12l-.78,5.25h-1.79l.78-5.25h-2.08l.2-1.36h5.99l-.2,1.36Z"/>
      <path class="cls-11" d="M1169.4,265.23c.15-1.02.54-1.84,1.18-2.45.64-.61,1.45-.92,2.43-.92s1.65.32,2.13.95.64,1.44.5,2.41l-.02.13c-.16,1.03-.56,1.85-1.19,2.46s-1.45.91-2.43.91-1.65-.32-2.13-.95c-.48-.63-.64-1.44-.49-2.42l.02-.13ZM1171.16,265.36c-.1.62-.07,1.11.09,1.47s.48.53.95.53c.44,0,.8-.19,1.08-.56s.47-.85.56-1.44l.02-.13c.09-.61.05-1.09-.11-1.45-.16-.36-.47-.54-.94-.54-.44,0-.81.19-1.09.57-.28.38-.46.85-.54,1.43l-.02.13Z"/>
      <path class="cls-11" d="M1182.67,265.48c-.15,1.01-.5,1.81-1.03,2.39-.53.58-1.21.87-2.03.87-.34,0-.63-.07-.88-.21-.25-.14-.45-.33-.61-.6l-.48,3.22h-1.78l1.37-9.16h1.61v.78c.23-.29.5-.52.79-.67s.63-.23,1-.23c.79,0,1.36.32,1.74.97.37.65.48,1.48.33,2.52l-.02.13ZM1180.91,265.35c.09-.64.07-1.15-.08-1.53-.15-.38-.44-.57-.87-.57-.26,0-.5.06-.7.17-.21.12-.39.28-.53.49l-.43,2.86c.08.19.21.34.39.43s.4.15.68.15c.42,0,.75-.17,1.01-.51s.44-.8.53-1.37l.02-.13Z"/>
      <path class="cls-11" d="M1188.24,261.99h1.78l-.99,6.61h-1.78l.6-4.02h-.04s-2.76,4.02-2.76,4.02h-1.79l.99-6.61h1.79l-.61,4.02h.04s2.76-4.02,2.76-4.02Z"/>
      <path class="cls-11" d="M1195.31,261.99h1.78l-.99,6.61h-1.78l.6-4.02h-.04s-2.76,4.02-2.76,4.02h-1.79l.99-6.61h1.79l-.61,4.02h.04s2.76-4.02,2.76-4.02ZM1196.66,259.11v.04c-.05.54-.29.97-.71,1.28-.42.32-.96.48-1.61.48s-1.11-.17-1.46-.5c-.35-.33-.48-.75-.38-1.27v-.04h1.32c-.04.22,0,.4.1.54s.29.2.56.2c.25,0,.45-.07.59-.21.15-.14.24-.32.27-.53h1.31Z"/>
    </g>
    <path class="cls-9" d="M617.73,301.48c68.22,0,192.91-3.08,276.29-127.05,8.36-12.43-9.16,9.81,0,0C974.23,41.25,1085.09,2.4,1149.06,2.4h.29c-63.97,0-201.22,38.84-281.42,172.02h0c-83.39,123.97-208.07,127.05-276.29,127.05"/>
    <path class="cls-4" d="M711.42,302.89c1.76,0,3.57,0,5.4,0"/>
  </g>
</svg>