<?xml version="1.0" encoding="UTF-8"?>
<svg id="_Слой_2" data-name="Слой_2" xmlns="http://www.w3.org/2000/svg" viewBox="0 0 915.19 217.43">
  <defs>
    <style>
      .cls-1 {
        stroke: #07b3e9;
      }

      .cls-1, .cls-2 {
        fill: none;
        stroke-miterlimit: 10;
        stroke-width: 8px;
      }

      .cls-3 {
        fill: #07b3e9;
      }

      .cls-4 {
        isolation: isolate;
      }

      .cls-5 {
        fill: #c8dff5;
      }

      .cls-2 {
        stroke: #eb5c9d;
      }

      .cls-6 {
        fill: #e94b94;
      }

      .cls-7 {
        fill: #eb5c9d;
      }

      .cls-8 {
        fill: #0fb3e5;
      }
    </style>
  </defs>
  <g id="_Слой_2-2" data-name="_Слой_2">
    <path class="cls-5" d="M539.21,209.6h338.22s29.16-4.61,31.46-26.67,0-149.47,0-149.47c0,0,4.6-25.92-43.75-25.99s-45.65-7.05-120.48,35.54-71.28,82.69-71.28,82.69c0,0-84.56,82.17-134.17,83.89Z"/>
    <path class="cls-3" d="M483.03,214.13c48.19,0,136.26-2.18,195.17-89.75,5.9-8.78-6.47,6.93,0,0C734.84,30.31,813.15,2.87,858.34,2.87h.21c-45.19,0-142.14,27.44-198.79,121.51h0c-58.9,87.57-146.98,89.75-195.17,89.75"/>
    <path class="cls-8" d="M708.55,163.15c0,4.63,1.96,7.09,5.63,7.09s3.67-.5,5.88-1.21l.96,3.17c-2.21,1.21-4.63,1.71-7.81,1.71-6.59,0-9.77-3.67-9.77-10.51s0-1.96,0-2.92.5-1.96.96-2.92c.5-.96.96-1.96,1.71-2.67.75-.75,1.46-1.46,2.92-1.71,1.21-.5,2.67-.75,4.17-.75,2.46,0,4.63.5,6.34.96l-.75,3.42c-1.46-.5-3.17-.5-4.63-.5s-3.42.5-4.39,1.96c-.96,1.46-1.46,2.92-1.46,5.38h0v-.5h.25-.03Z"/>
    <path class="cls-8" d="M708.55,163.15c0,4.63,1.96,7.09,5.63,7.09s3.67-.5,5.88-1.21l.96,3.17c-2.21,1.21-4.63,1.71-7.81,1.71-6.59,0-9.77-3.67-9.77-10.51s0-1.96,0-2.92.5-1.96.96-2.92c.5-.96.96-1.96,1.71-2.67.75-.75,1.46-1.46,2.92-1.71,1.21-.5,2.67-.75,4.17-.75,2.46,0,4.63.5,6.34.96l-.75,3.42c-1.46-.5-3.17-.5-4.63-.5s-3.42.5-4.39,1.96c-.96,1.46-1.46,2.92-1.46,5.38h0v-.5h.25-.03Z"/>
    <path class="cls-8" d="M743.26,173.66h-4.63v-14.9h0l-2.67,4.39c-3.92,6.1-6.34,9.77-6.84,10.51h-4.39v-20.77h4.63v14.65h0s.5-.75.96-1.46c.5-.75.75-1.46,1.21-1.71,3.67-5.38,5.88-9.05,7.34-11.23h4.63v20.77h0s-.25-.25-.25-.25Z"/>
    <path class="cls-8" d="M743.26,173.66h-4.63v-14.9h0l-2.67,4.39c-3.92,6.1-6.34,9.77-6.84,10.51h-4.39v-20.77h4.63v14.65h0s.5-.75.96-1.46c.5-.75.75-1.46,1.21-1.71,3.67-5.38,5.88-9.05,7.34-11.23h4.63v20.77h0s-.25-.25-.25-.25Z"/>
    <path class="cls-8" d="M753.27,173.66v-17.6h-7.34v-3.42h19.31v3.42h-7.34v17.6h-4.63Z"/>
    <path class="cls-8" d="M753.27,173.66v-17.6h-7.34v-3.42h19.31v3.42h-7.34v17.6h-4.63Z"/>
    <path class="cls-8" d="M786.99,173.66h-4.63v-14.9h0l-2.67,4.39c-3.92,6.1-6.34,9.77-6.84,10.51h-4.39v-20.77h4.63v14.65h0s.5-.75.96-1.46c.5-.75.75-1.46,1.21-1.71,3.67-5.38,5.88-9.05,7.34-11.23h4.63v20.77h0s-.25-.25-.25-.25Z"/>
    <path class="cls-8" d="M786.99,173.66h-4.63v-14.9h0l-2.67,4.39c-3.92,6.1-6.34,9.77-6.84,10.51h-4.39v-20.77h4.63v14.65h0s.5-.75.96-1.46c.5-.75.75-1.46,1.21-1.71,3.67-5.38,5.88-9.05,7.34-11.23h4.63v20.77h0s-.25-.25-.25-.25Z"/>
    <path class="cls-7" d="M809.44,173.66h-4.63v-17.6h-6.1v2.46c-.5,4.88-.75,8.3-1.21,10.01-.75,2.92-2.46,4.88-4.63,5.88-.5,0-1.21.5-1.96.5l-1.21-3.17c2.21-.75,3.42-1.96,3.67-3.67.5-1.46.75-4.88.96-10.01v-5.38h14.9v21.02h.25l-.03-.03Z"/>
    <path class="cls-7" d="M809.44,173.66h-4.63v-17.6h-6.1v2.46c-.5,4.88-.75,8.3-1.21,10.01-.75,2.92-2.46,4.88-4.63,5.88-.5,0-1.21.5-1.96.5l-1.21-3.17c2.21-.75,3.42-1.96,3.67-3.67.5-1.46.75-4.88.96-10.01v-5.38h14.9v21.02h.25l-.03-.03Z"/>
    <path class="cls-7" d="M831.43,159.73v10.76h2.67v2.67c-.96.5-2.46.96-4.17.96s-1.71,0-2.21-.5-.75-.96-.75-1.96h0c-2.21,1.71-4.63,2.67-7.34,2.67s-2.21,0-3.17-.5c-.75-.5-1.46-.96-1.96-1.46s-.75-1.21-.96-1.96c0-.5-.5-1.46-.5-1.96,0-1.96.75-3.42,2.46-4.63,1.46-.96,3.67-1.46,5.88-1.71l5.13-.5v-1.21c0-1.46-.5-2.67-.96-3.42-.5-.5-1.71-.96-3.42-.96s-4.39.5-6.59,1.21c0-.75-.5-1.71-.75-2.92,2.67-1.21,5.63-1.71,8.55-1.71s4.39.5,5.63,1.46,1.96,2.92,1.96,5.38h0v.5l.5-.25v.03ZM826.79,163.9l-4.88.5c-2.46,0-3.67,1.21-3.67,3.17s1.21,3.42,3.42,3.42,3.42-.75,5.13-2.46v-4.63h0Z"/>
    <path class="cls-7" d="M831.43,159.73v10.76h2.67v2.67c-.96.5-2.46.96-4.17.96s-1.71,0-2.21-.5-.75-.96-.75-1.96h0c-2.21,1.71-4.63,2.67-7.34,2.67s-2.21,0-3.17-.5c-.75-.5-1.46-.96-1.96-1.46s-.75-1.21-.96-1.96c0-.5-.5-1.46-.5-1.96,0-1.96.75-3.42,2.46-4.63,1.46-.96,3.67-1.46,5.88-1.71l5.13-.5v-1.21c0-1.46-.5-2.67-.96-3.42-.5-.5-1.71-.96-3.42-.96s-4.39.5-6.59,1.21c0-.75-.5-1.71-.75-2.92,2.67-1.21,5.63-1.71,8.55-1.71s4.39.5,5.63,1.46,1.96,2.92,1.96,5.38h0v.5l.5-.25v.03ZM826.79,163.9l-4.88.5c-2.46,0-3.67,1.21-3.67,3.17s1.21,3.42,3.42,3.42,3.42-.75,5.13-2.46v-4.63h0Z"/>
    <path class="cls-7" d="M854.41,152.89v3.17h-11.48v4.88h5.88c2.67,0,4.63.5,5.88,1.46,1.46,1.21,2.21,2.67,2.21,4.63s-.75,3.67-2.21,4.63c-1.46.96-3.42,1.46-5.63,1.46h-10.98v-20.53h16.11l.25.25-.03.03ZM848.28,164.11h-5.13v6.34h5.63c1.21,0,2.21,0,2.92-.75.72-.75,1.21-1.46,1.21-2.46,0-1.96-1.46-3.17-4.39-3.17h-.25v.03Z"/>
    <path class="cls-7" d="M854.41,152.89v3.17h-11.48v4.88h5.88c2.67,0,4.63.5,5.88,1.46,1.46,1.21,2.21,2.67,2.21,4.63s-.75,3.67-2.21,4.63c-1.46.96-3.42,1.46-5.63,1.46h-10.98v-20.53h16.11l.25.25-.03.03ZM848.28,164.11h-5.13v6.34h5.63c1.21,0,2.21,0,2.92-.75.72-.75,1.21-1.46,1.21-2.46,0-1.96-1.46-3.17-4.39-3.17h-.25v.03Z"/>
    <circle class="cls-8" cx="855.37" cy="188.56" r="3.17"/>
    <circle class="cls-8" cx="855.37" cy="188.56" r="3.17"/>
    <circle class="cls-8" cx="868.81" cy="179.26" r="3.67"/>
    <circle class="cls-8" cx="868.81" cy="179.26" r="3.67"/>
    <path class="cls-8" d="M858.55,139.2c0-1.71-1.46-3.17-3.17-3.17s-3.17,1.46-3.17,3.17,1.46,3.17,3.17,3.17,3.17-1.46,3.17-3.17h0Z"/>
    <path class="cls-8" d="M858.55,139.2c0-1.71-1.46-3.17-3.17-3.17s-3.17,1.46-3.17,3.17,1.46,3.17,3.17,3.17,3.17-1.46,3.17-3.17h0Z"/>
    <circle class="cls-8" cx="868.81" cy="148.5" r="3.67"/>
    <circle class="cls-8" cx="868.81" cy="148.5" r="3.67"/>
    <circle class="cls-7" cx="874.44" cy="163.65" r="4.39"/>
    <circle class="cls-7" cx="874.44" cy="163.65" r="4.39"/>
    <g class="cls-4">
      <g class="cls-4">
        <path class="cls-3" d="M216.45,72.29c-.58-2.36-1.35-3.98-2.3-4.88-.95-.89-2.26-1.33-3.91-1.33h-.06c-2.36,0-4.12.76-5.28,2.27-1.16,1.51-1.74,3.45-1.74,5.81v11.67c0,2.36.58,4.3,1.74,5.81,1.16,1.51,2.92,2.27,5.28,2.27h.06c1.82,0,3.19-.49,4.1-1.46.91-.97,1.61-2.56,2.11-4.75l7.14,2.61c-.7,4.18-2.08,7.21-4.13,9.1s-5.12,2.83-9.22,2.83h-.06c-2.61,0-4.91-.37-6.89-1.12-1.99-.75-3.64-1.81-4.97-3.2-1.33-1.39-2.33-3.05-3.01-5s-1.02-4.12-1.02-6.52v-12.79c0-2.4.34-4.57,1.02-6.52.68-1.95,1.69-3.61,3.01-5,1.32-1.39,2.98-2.45,4.97-3.2s4.28-1.12,6.89-1.12h.06c2.03,0,3.79.23,5.28.68,1.49.46,2.77,1.16,3.85,2.11,1.08.95,1.96,2.18,2.64,3.7.68,1.51,1.21,3.32,1.58,5.43l-7.14,2.61Z"/>
      </g>
    </g>
    <g class="cls-4">
      <path class="cls-3" d="M254.92,58.5v8.57h-9.5v34.4h-8.88v-34.4h-9.5v-8.57h27.88Z"/>
    </g>
    <g>
      <path class="cls-3" d="M273.12,57.76c2.61,0,4.92.37,6.92,1.12,2.01.75,3.7,1.81,5.06,3.2,1.37,1.39,2.39,3.05,3.07,5,.68,1.95,1.02,4.12,1.02,6.52v12.79c0,2.4-.34,4.57-1.02,6.52s-1.71,3.61-3.07,5-3.05,2.45-5.06,3.2c-2.01.75-4.32,1.12-6.92,1.12h-.06c-5.3-.04-9.33-1.49-12.08-4.35-2.75-2.86-4.11-6.69-4.07-11.49v-12.79c0-2.4.34-4.57,1.02-6.52.68-1.95,1.71-3.61,3.07-5,1.37-1.39,3.05-2.45,5.06-3.2,2.01-.75,4.34-1.12,6.99-1.12h.06ZM273.12,93.9c2.4,0,4.21-.75,5.43-2.27,1.22-1.51,1.83-3.45,1.83-5.81v-11.74c0-2.36-.61-4.29-1.83-5.78-1.22-1.49-3.03-2.24-5.43-2.24h-.06c-2.44,0-4.28.75-5.5,2.24-1.22,1.49-1.83,3.42-1.83,5.78v11.74c0,2.36.61,4.3,1.83,5.81,1.22,1.51,3.05,2.27,5.5,2.27h.06Z"/>
      <path class="cls-3" d="M302.98,58.5l9.13,21.98,9.19-21.98h8.51v42.97h-8.32l.37-27.88-7.45,20.06h-4.53l-7.45-20.06.31,27.88h-8.26v-42.97h8.51Z"/>
      <path class="cls-3" d="M335.09,86.39v-12.79c0-2.4.34-4.57,1.02-6.52.68-1.95,1.69-3.61,3.01-5,1.32-1.39,2.98-2.45,4.97-3.2s4.28-1.12,6.89-1.12h.06c2.03,0,3.79.23,5.28.68,1.49.46,2.77,1.16,3.85,2.11,1.08.95,1.96,2.18,2.64,3.7.68,1.51,1.21,3.32,1.58,5.43l-7.14,2.61c-.58-2.36-1.35-3.98-2.3-4.88-.95-.89-2.26-1.33-3.91-1.33h-.06c-2.36,0-4.12.76-5.28,2.27-1.16,1.51-1.74,3.45-1.74,5.81v11.67c0,2.36.58,4.3,1.74,5.81,1.16,1.51,2.92,2.27,5.28,2.27h.06c1.82,0,3.19-.49,4.1-1.46.91-.97,1.61-2.56,2.11-4.75l7.14,2.61c-.7,4.18-2.08,7.21-4.13,9.1s-5.12,2.83-9.22,2.83h-.06c-2.61,0-4.91-.37-6.89-1.12-1.99-.75-3.64-1.81-4.97-3.2-1.33-1.39-2.33-3.05-3.01-5s-1.02-4.12-1.02-6.52Z"/>
      <path class="cls-3" d="M391.29,58.5h7.2v42.97h-8.38v-25.03l-13.91,25.03h-7.2v-42.97h8.45v25.03l13.85-25.03Z"/>
      <path class="cls-3" d="M430.54,58.5v8.57h-9.5v34.4h-8.88v-34.4h-9.5v-8.57h27.88Z"/>
      <path class="cls-3" d="M456.99,58.5h7.2v42.97h-8.38v-25.03l-13.91,25.03h-7.2v-42.97h8.45v25.03l13.85-25.03Z"/>
      <path class="cls-3" d="M469.91,97.19c0-1.32.49-2.46,1.46-3.42.97-.95,2.18-1.43,3.63-1.43s2.65.48,3.6,1.43c.95.95,1.43,2.09,1.43,3.42,0,1.41-.48,2.59-1.43,3.54-.95.95-2.15,1.43-3.6,1.43s-2.66-.48-3.63-1.43c-.97-.95-1.46-2.13-1.46-3.54Z"/>
      <path class="cls-3" d="M498.85,58.5c5.01,0,8.78,1.22,11.3,3.66,2.52,2.44,3.79,5.86,3.79,10.25v3.85c0,4.39-1.26,7.8-3.79,10.25-2.53,2.44-6.29,3.66-11.3,3.66h-4.29v11.3h-8.82v-42.97h13.1ZM494.56,81.79h4.29c4.14,0,6.21-1.84,6.21-5.53v-3.85c0-3.73-2.07-5.59-6.21-5.59h-4.29v14.97Z"/>
      <path class="cls-3" d="M530.83,63.16v-5.9h8.88v5.9c4.68.75,8.27,2.59,10.77,5.53,2.5,2.94,3.76,6.69,3.76,11.24s-1.25,8.37-3.76,11.33c-2.51,2.96-6.1,4.81-10.77,5.56v5.9h-8.88v-5.9c-2.32-.37-4.39-1.03-6.21-1.96-1.82-.93-3.35-2.12-4.6-3.57-1.24-1.45-2.18-3.14-2.83-5.06-.64-1.93-.96-4.03-.96-6.3,0-4.55,1.26-8.31,3.79-11.27,2.52-2.96,6.13-4.79,10.81-5.5ZM524,79.93c0,2.44.63,4.45,1.89,6.02,1.26,1.57,3.07,2.65,5.43,3.23v-18.38c-2.36.54-4.17,1.59-5.43,3.17-1.26,1.57-1.89,3.56-1.89,5.96ZM546.54,79.93c0-2.4-.63-4.38-1.89-5.93-1.26-1.55-3.07-2.62-5.43-3.2v18.38c2.36-.58,4.17-1.66,5.43-3.23,1.26-1.57,1.89-3.58,1.89-6.02Z"/>
    </g>
    <g class="cls-4">
      <path class="cls-3" d="M195.53,145.67c-2.33-3.32-3.01-7.37-2.04-12.13.97-4.77,3.31-8.83,7-12.18,3.69-3.35,7.68-5.03,11.96-5.03,3.94,0,7.09,1.48,9.46,4.43.34.45.26.89-.23,1.33l-3.22,3c-.43.41-.78.41-1.07,0-1.53-1.88-3.54-2.81-6.02-2.81-2.71,0-5.2,1.09-7.47,3.27-2.27,2.18-3.72,4.79-4.34,7.84-.62,3.02-.22,5.61,1.18,7.77,1.4,2.16,3.46,3.24,6.17,3.24,2.37,0,4.74-.91,7.1-2.72.45-.38.81-.38,1.07,0l2.03,3.05c.13.19.17.41.1.64-.06.24-.2.45-.41.64-3.48,3.08-7.27,4.62-11.35,4.62-4.28,0-7.59-1.66-9.92-4.98Z"/>
      <path class="cls-3" d="M225.77,149.27l5.46-26.75h-6.55c-.23,0-.4-.09-.52-.26-.12-.17-.16-.39-.1-.64l.8-3.91c.05-.25.17-.47.37-.64.19-.17.4-.26.63-.26h18.71c.23,0,.4.09.52.26.12.17.16.39.1.64l-.8,3.91c-.05.25-.17.47-.37.64s-.4.26-.63.26h-6.55l-5.46,26.75c-.05.22-.17.43-.38.62s-.42.29-.61.29h-3.98c-.23,0-.4-.1-.52-.29s-.15-.4-.11-.62Z"/>
      <path class="cls-3" d="M246.26,145.67c-2.31-3.32-2.97-7.37-2-12.13.97-4.77,3.29-8.83,6.96-12.18,3.67-3.35,7.64-5.03,11.92-5.03s7.58,1.68,9.89,5.03c2.31,3.35,2.98,7.41,2.01,12.18-.97,4.77-3.3,8.81-6.97,12.13-3.67,3.32-7.65,4.98-11.93,4.98s-7.58-1.66-9.88-4.98ZM254.3,125.77c-2.37,2.16-3.86,4.75-4.48,7.77-.62,3.02-.18,5.59,1.31,7.72,1.49,2.13,3.58,3.19,6.26,3.19s5.25-1.07,7.61-3.22c2.36-2.15,3.85-4.71,4.46-7.7.62-3.02.17-5.61-1.33-7.77-1.5-2.16-3.59-3.24-6.27-3.24s-5.21,1.08-7.58,3.24Z"/>
      <path class="cls-3" d="M275.51,149.08l11.63-32.04c.15-.48.46-.72.92-.72h.68c.34,0,.55.16.63.48l4.83,22.5h.13l14.01-22.5c.21-.32.48-.48.83-.48h.69c.46,0,.66.24.62.72l-1.48,32.04c0,.32-.1.58-.29.79-.19.21-.42.31-.7.31h-3.9c-.43,0-.65-.24-.67-.71l1.16-18.07h-.13l-11.31,18.74c-.19.35-.46.52-.84.52h-.77c-.31,0-.52-.18-.62-.52l-3.76-18.74h-.13l-6.17,18.07c-.07.19-.19.36-.38.5-.19.14-.36.21-.54.21h-3.85c-.63,0-.83-.37-.59-1.1Z"/>
      <path class="cls-3" d="M311.46,150.18c-.31,0-.52-.13-.63-.38-.1-.25-.05-.54.15-.86l19.86-32.09c.21-.35.49-.52.83-.52h.43c.34,0,.55.17.62.52l6.64,32.09c.08.32.01.6-.2.86-.21.25-.47.38-.78.38h-3.72c-.54,0-.89-.32-1.05-.95l-1.05-5.15h-12.8l-3.15,5.15c-.36.64-.84.95-1.44.95h-3.72ZM322.95,138.78h8.6l-2.14-10.49h-.13l-6.33,10.49Z"/>
      <path class="cls-3" d="M347.22,149.27l5.46-26.75h-6.55c-.23,0-.4-.09-.52-.26-.12-.17-.16-.39-.1-.64l.8-3.91c.05-.25.17-.47.37-.64.19-.17.4-.26.63-.26h18.71c.23,0,.4.09.52.26.12.17.16.39.1.64l-.8,3.91c-.05.25-.17.47-.37.64s-.4.26-.63.26h-6.55l-5.46,26.75c-.05.22-.17.43-.38.62s-.42.29-.61.29h-3.98c-.23,0-.4-.1-.52-.29s-.15-.4-.11-.62Z"/>
      <path class="cls-3" d="M367.71,145.67c-2.31-3.32-2.97-7.37-2-12.13.97-4.77,3.29-8.83,6.96-12.18,3.67-3.35,7.64-5.03,11.92-5.03s7.58,1.68,9.89,5.03c2.31,3.35,2.98,7.41,2.01,12.18-.97,4.77-3.3,8.81-6.97,12.13-3.67,3.32-7.65,4.98-11.93,4.98s-7.58-1.66-9.88-4.98ZM375.76,125.77c-2.37,2.16-3.86,4.75-4.48,7.77-.62,3.02-.18,5.59,1.31,7.72,1.49,2.13,3.58,3.19,6.26,3.19s5.25-1.07,7.61-3.22c2.36-2.15,3.85-4.71,4.46-7.7.62-3.02.17-5.61-1.33-7.77-1.5-2.16-3.59-3.24-6.27-3.24s-5.21,1.08-7.58,3.24Z"/>
      <path class="cls-3" d="M398.67,150.18h-1.8c-.4,0-.71-.16-.93-.48-.22-.32-.28-.7-.19-1.14l.64-3.15c.09-.44.31-.83.66-1.14.35-.32.73-.48,1.12-.48h.69c.34,0,.77-.16,1.3-.48.55-.32,1.21-1.02,1.97-2.1.76-1.08,1.61-2.63,2.55-4.65.94-2.02,1.86-4.7,2.77-8.03.21-.76.43-1.64.66-2.62l1.75-7.53c.09-.45.31-.81.65-1.1.38-.32.78-.48,1.21-.48h17.25c.43,0,.75.16.97.48.2.29.25.65.16,1.1l-6.17,30.23c-.09.45-.29.81-.61,1.1-.35.32-.74.48-1.17.48h-2.83c-.43,0-.75-.16-.97-.48-.26-.29-.34-.65-.25-1.1l5.28-25.89h-8.82c-.16.76-.31,1.54-.48,2.34-.43,2.1-.76,3.51-.99,4.24-2.27,6.8-4.46,11.94-6.57,15.4-2.26,3.66-4.89,5.48-7.88,5.48Z"/>
      <path class="cls-3" d="M433.98,145.67c-2.31-3.32-2.97-7.37-2-12.13.97-4.77,3.29-8.83,6.96-12.18,3.67-3.35,7.64-5.03,11.92-5.03s7.58,1.68,9.89,5.03c2.31,3.35,2.98,7.41,2.01,12.18-.97,4.77-3.3,8.81-6.97,12.13-3.67,3.32-7.65,4.98-11.93,4.98s-7.58-1.66-9.88-4.98ZM442.03,125.77c-2.37,2.16-3.86,4.75-4.48,7.77-.62,3.02-.18,5.59,1.31,7.72,1.49,2.13,3.58,3.19,6.26,3.19s5.25-1.07,7.61-3.22c2.36-2.15,3.85-4.71,4.46-7.7.62-3.02.17-5.61-1.33-7.77-1.5-2.16-3.59-3.24-6.27-3.24s-5.21,1.08-7.58,3.24Z"/>
      <path class="cls-3" d="M476.66,122.72l-5.28,25.89c-.09.45-.34.81-.74,1.1-.35.32-.72.48-1.12.48h-2.78c-.43,0-.74-.16-.93-.48-.23-.29-.3-.65-.2-1.1l6.17-30.23c.09-.45.31-.81.65-1.1.32-.32.7-.48,1.12-.48h15.75c.4,0,.71.16.93.48.22.32.29.7.19,1.14l-.54,2.67c-.09.45-.31.83-.66,1.14-.35.32-.73.48-1.13.48h-11.43Z"/>
      <path class="cls-3" d="M496.48,139.12l22.3-23.27h1.75c.4,0,.71.14.94.43.23.29.29.67.2,1.14l-6.31,30.7c-.09.45-.31.82-.66,1.12-.35.3-.72.45-1.12.45h-2.7c-.4,0-.72-.16-.97-.48-.22-.32-.29-.7-.2-1.14l4.4-21.55-22.29,23.65h-1.88c-.4,0-.71-.14-.94-.43-.23-.29-.3-.65-.2-1.1l6.32-30.75c.09-.45.31-.81.65-1.1.35-.32.72-.48,1.12-.48h2.74c.4,0,.72.16.97.48.22.32.29.7.19,1.14l-4.32,21.17Z"/>
      <path class="cls-3" d="M538.54,116.76h11.82c.43,0,.75.16.97.48.2.29.25.65.16,1.1l-6.17,30.23c-.09.45-.29.81-.61,1.1-.35.32-.74.48-1.17.48h-2.78c-.43,0-.77-.16-1.02-.48-.23-.29-.3-.65-.2-1.1l2.27-11.11h-2.23c-.89.03-1.68.13-2.37.29-.7.19-1.31.52-1.83,1-1.27,1.18-2.44,2.4-3.53,3.67-1.09,1.27-2.03,2.42-2.84,3.43-.93,1.21-1.81,2.43-2.63,3.67-.17.16-.38.3-.6.43-.23.13-.51.19-.85.19h-3.42c-.31,0-.57-.06-.77-.19-.3-.19-.47-.48-.51-.86-.01-.22,0-.47.06-.74.06-.27.2-.55.43-.83l3.27-3.86c1.48-1.68,2.62-3,3.42-3.96.79-.95,1.37-1.63,1.72-2.03.35-.4.78-.77,1.28-1.12-1.58-.67-2.71-1.6-3.41-2.81-.91-1.68-1.1-3.85-.56-6.48.3-1.49.83-2.87,1.59-4.12.75-1.25,1.66-2.36,2.71-3.31,1.14-.95,2.38-1.7,3.73-2.24,1.35-.54,2.71-.81,4.08-.81ZM535.9,123.17c-.59.24-1.13.56-1.61.95-.48.4-.88.86-1.2,1.38s-.55,1.12-.69,1.79c-.14.67-.18,1.3-.13,1.91.15,1.21.68,2.07,1.57,2.58.43.25.94.38,1.51.38h7.49l1.91-9.34h-7.06c-.6,0-1.19.12-1.79.36Z"/>
    </g>
    <path class="cls-1" d="M35.54,4h844.1c17.32,0,31.54,15.32,31.54,34.48v140.47c0,19.16-14.26,34.48-31.54,34.48H35.54c-17.32,0-31.54-15.32-31.54-34.48V38.48C4,19.32,18.26,4,35.54,4h0Z"/>
    <path class="cls-2" d="M771.07,7.41h106.36c17.45,0,31.46,14.9,31.46,33.2v135.79c0,18.3-13.96,33.2-31.46,33.2H37.42c-17.45,0-31.46-14.9-31.46-33.2V40.61c.04-18.3,14-33.2,31.46-33.2h733.66"/>
    <path class="cls-6" d="M49.36,43.63c-7.28,1.96-11.54,7.02-15.07,17.71-.81,2.51-1.53,5.19-1.53,6,0,.85-.17,1.49-.3,1.36-.17-.09-.26.09-.26.3s-.3,2.13-.64,4.21c-1.23,6.77-1.66,13.92-1.62,24.82,0,7.41.21,11.45.64,14.81.72,6,2.34,13.79,2.72,13.24.17-.21.21-.13.09.34-.09.38,0,1.28.17,1.96s.85,3.06,1.49,5.28c.64,2.21,1.62,5.32,2.17,6.9s1.23,3.45,1.53,4.17c.21.72.6,1.62.77,1.96,1.02,2.26,1.96,4.47,1.96,4.68,0,.3,3.11,6.47,3.32,6.68.13.09.51.77.89,1.49s1.23,2.04,1.87,2.98c.64.89,1.4,2,1.75,2.47.3.43.81,1.06,1.06,1.36s1.06,1.15,1.75,1.92c1.49,1.53,4,3.28,6.34,4.38,2.09.94,6.51,1.15,9.02.38,3.41-1.02,5.45-2.55,7.62-5.7,1.23-1.87,2.81-5.15,3.02-6.43,0-.21.13-.51.26-.64.17-.3,2.13-7.75,2.94-11.2.55-2.3,1.66-5.49,2.64-7.36,1.62-3.28,3.28-4.51,6.51-4.98,3.41-.47,6.17,1.02,8.05,4.26,1.02,1.83,2.38,6.39,3.02,10.22,1.96,11.92,2.68,15.07,4.13,18.01,1.96,4.04,5.36,5.83,9.58,5.02.94-.17,2.09-.47,2.43-.6,1.53-.64,4.55-2.26,4.9-2.55.21-.21.94-.72,1.57-1.23,3.11-2.34,8.09-8.09,10.77-12.51.43-.68.94-1.4,1.11-1.66.77-.81,5.62-10.47,6.98-13.71.47-1.19.98-2.43,1.15-2.81s.94-2.43,1.75-4.6c1.23-3.53,1.96-5.7,3.36-10.68.47-1.62,2.17-10.51,2.81-14.47.55-3.66.81-19.41.38-24.82-.6-7.28-2-14.77-3.83-20.22-3.28-9.75-8.26-15.66-14.64-17.45-3.96-1.11-10.09-.77-15.58.81-4.64,1.32-7.7,2.13-8.73,2.34-.64.13-1.28.34-1.49.43-.17.09-.51.21-.81.21-.26,0-1.36.26-2.43.51-1.11.21-2.34.47-2.81.51-1.23.17-9.32.21-10.05,0-.38-.09-1.62-.38-2.81-.55-1.19-.21-2.26-.55-2.47-.68-.17-.17-.55-.3-.94-.3-.6,0-3.66-.85-13.71-3.87-10.47-3.15-17.75-4.04-22.65-2.68h-.17ZM127.34,50.4s-.51,3.45-1.02,4.55c-.17.38-.51,1.28-.81,2-2.89,7.75-8.47,15.11-15.54,20.65-1.11.81-2.13,1.66-2.34,1.83-1.19.98-6.6,3.7-9.02,4.55-5.19,1.87-9.49,2.34-14.39,1.57-8.77-1.32-17.88-6.04-21.92-11.45-1.11-1.4-.77-1.83,1.02-1.23.64.21,1.53.47,1.87.51.38.09,1.32.26,2.13.51,2.34.55,10.26.17,12.51-.64,3.66-1.32,7.75-3.62,9.58-5.32.26-.26,1.36-1.23,2.43-2.13,1.06-.94,2.64-2.26,3.45-2.98,7.45-6.43,10.13-8.22,14.64-9.83,2.04-.72,8.9-2.26,11.49-2.6,1.66-.21,5.62-.21,5.83,0h.09ZM144.15,63.04c2.51,8.22,3.53,16.22,3.53,27.07,0,7.02-.26,11.24-.98,16.52-1.79,12.68-2.72,17.45-5.58,27.63-.77,2.68-1.4,5.07-1.45,5.28-.17.89-2.38,5.87-3.75,8.39-2.38,4.43-5.62,9.45-8.22,12.68-2.38,2.98-7.45,7.75-8.17,7.75-.21,0-.47.17-.51.38-.17.51-3.75,1.62-5.28,1.62-3.58,0-6.9-3.11-8.6-8l-.51-1.53.94.09c.51,0,.94.17.94.26,0,.34,3.66,1.87,4.98,2.09s4.21-.51,5.58-1.4c3.58-2.38,8.68-8.85,12.3-15.58,9.92-18.43,15.32-41.72,14.86-63.94-.09-4.17-.21-8.47-.34-9.54-.21-2.81-1.11-9.54-1.53-11.66-.17-.94-.34-2-.34-2.3,0-1.36,1.02.72,2.09,4.26l.04-.04ZM150.84,113.1c-.09.26-.21.17-.21-.21s.09-.55.17-.43c.09.09.13.38,0,.64h.04ZM91.75,126.68c.89.47,2.09,1.23,2.6,1.79,1.87,1.83,4.3,6.17,4.3,7.62,0,.51-.34.38-1.79-.81-2.47-2-5.02-2.94-7.79-2.77-1.83.09-2.34.26-3.28,1.06-3.02,2.55-5.62,8.09-8.51,18.13-2.34,8.09-4.43,12.47-7.07,14.94-2.26,2.09-4.09,2.77-6.94,2.6-3.02-.21-5.53-1.53-8.6-4.55-2.3-2.26-4.98-5.58-4.98-6.21,0-.17-.13-.38-.3-.43-.47-.17-3.32-5.07-3.32-5.66,0-.68.55-.64.94,0,.3.6,3.7,4,5.45,5.53,2.68,2.34,7.28,4.43,9.58,4.43,3.24,0,6.3-2.26,7.45-5.45.34-.94.72-1.87.85-2.13.17-.26.89-2.64,1.66-5.28,1.66-5.83,3.15-10.26,3.96-12,.34-.72.94-2.09,1.32-2.98,1.66-3.7,4.26-6.94,6.39-7.87,1.66-.77,1.92-.81,4.26-.81,1.75,0,2.55.13,3.83.81v.04Z"/>
    <g>
      <path class="cls-8" d="M703.5,189.25h.03s2.31-4.63,2.31-4.63h1.65l-.94,6.29h-1.26l.64-4.29h-.02s-2.2,4.29-2.2,4.29h-.86l-.91-4.3h-.03l-.64,4.3h-1.26l.94-6.29h1.65l.9,4.63Z"/>
      <path class="cls-8" d="M709.62,191c-.67,0-1.17-.22-1.52-.65-.34-.43-.46-.98-.36-1.64l.03-.17c.11-.73.38-1.3.82-1.74.44-.43,1-.65,1.67-.65.6,0,1.05.19,1.34.58.29.39.39.9.29,1.55l-.1.65h-2.79v.02c-.04.33.01.59.16.79.14.19.39.29.73.29.27,0,.51-.03.73-.09.22-.06.43-.15.66-.26l.22.78c-.21.15-.49.28-.82.38s-.69.16-1.07.16ZM710.12,187.12c-.24,0-.45.09-.61.26-.17.18-.29.4-.36.69v.03h1.54v-.1c.06-.28.03-.5-.05-.65-.09-.15-.26-.23-.51-.23Z"/>
      <path class="cls-8" d="M716.56,189.14h-.35l-.26,1.76h-1.25l.26-1.76h-.35l-1.18,1.76h-1.62l1.91-2.53-1.13-2.15h1.59l.7,1.76h.25l.26-1.76h1.25l-.26,1.76h.26l1.22-1.76h1.56v.02s-1.74,2.12-1.74,2.12l1.14,2.53h-1.61l-.66-1.76Z"/>
      <path class="cls-8" d="M719.68,189.94h0s.13,0,.13,0c.22,0,.4-.14.54-.42.14-.28.27-.74.4-1.37l.38-1.91h3.46l-.56,3.71h.65l-.38,2.51h-1.26l.23-1.55h-2.78l-.23,1.55h-1.26l.38-2.51h.3ZM722.01,188.15c-.08.39-.17.73-.26,1.02s-.21.55-.34.77h1.37l.41-2.7h-.99l-.18.91Z"/>
      <path class="cls-8" d="M727.27,188.95v.25s.03,0,.03,0l1.34-2.97h1.36l-2.7,5.37c-.18.33-.4.62-.67.84-.26.23-.62.34-1.08.34-.1,0-.2,0-.29-.03-.09-.02-.2-.04-.32-.07l.29-.92s.07.01.12.02.08,0,.12,0c.2,0,.36-.05.5-.16.13-.11.24-.23.32-.38l.2-.36-.96-4.67h1.36l.38,2.71Z"/>
      <path class="cls-8" d="M733.85,190.91h-1.26l.27-1.81h-1.54l-.27,1.81h-1.26l.7-4.67h1.26l-.29,1.89h1.54l.29-1.89h1.26l-.7,4.67Z"/>
      <path class="cls-8" d="M737.56,190.91c-.03-.11-.05-.22-.07-.34-.01-.12-.02-.24-.02-.36-.16.23-.36.42-.6.57-.23.15-.5.22-.79.22-.47,0-.83-.13-1.06-.38-.24-.26-.32-.6-.25-1.03.07-.48.3-.83.68-1.08.39-.24.92-.36,1.61-.36h.71l.06-.37c.03-.23,0-.41-.1-.53-.1-.12-.27-.18-.5-.18-.2,0-.36.05-.49.15-.13.1-.21.24-.23.41h-1.21v-.03c.04-.41.26-.75.66-1.03.4-.28.9-.42,1.49-.42.54,0,.97.14,1.28.43s.43.69.35,1.21l-.29,1.93c-.03.23-.05.43-.04.62s.03.38.07.57h-1.26ZM736.53,190.06c.21,0,.41-.06.6-.17.19-.11.33-.24.42-.38l.1-.66h-.71c-.26,0-.47.07-.63.2-.16.14-.26.3-.29.48-.03.16,0,.29.1.38.09.09.22.14.41.14Z"/>
      <path class="cls-8" d="M744.1,188.7c-.11.72-.35,1.28-.73,1.69-.38.41-.86.61-1.43.61-.24,0-.45-.05-.62-.14-.18-.1-.32-.24-.43-.42l-.34,2.27h-1.26l.97-6.47h1.14v.55c.16-.21.35-.37.56-.48s.44-.16.7-.16c.56,0,.96.23,1.23.68.26.46.34,1.05.23,1.78v.09ZM742.85,188.61c.07-.45.05-.81-.06-1.08-.11-.27-.31-.4-.62-.4-.18,0-.35.04-.5.12-.15.08-.27.2-.38.35l-.31,2.02c.06.14.15.24.27.31s.28.1.48.1c.29,0,.53-.12.72-.36s.31-.56.37-.97v-.09Z"/>
      <path class="cls-8" d="M744.71,188.53c.11-.72.38-1.3.84-1.73.45-.43,1.02-.65,1.72-.65s1.17.22,1.5.67.45,1.02.35,1.71v.09c-.13.73-.41,1.31-.86,1.74s-1.02.64-1.72.64-1.17-.22-1.5-.67c-.34-.45-.45-1.02-.35-1.71v-.09ZM745.95,188.62c-.07.44-.05.79.06,1.04s.34.38.67.38c.31,0,.57-.13.76-.39s.33-.6.39-1.02v-.09c.07-.43.05-.77-.06-1.03-.11-.25-.33-.38-.66-.38-.31,0-.57.13-.77.4-.2.27-.33.6-.38,1.01v.09Z"/>
      <path class="cls-8" d="M749.81,189.94h0s.13,0,.13,0c.22,0,.4-.14.54-.42.14-.28.27-.74.4-1.37l.38-1.91h3.46l-.56,3.71h.65l-.38,2.51h-1.26l.23-1.55h-2.78l-.23,1.55h-1.26l.38-2.51h.3ZM752.14,188.15c-.08.39-.17.73-.26,1.02s-.21.55-.34.77h1.37l.41-2.7h-.99l-.18.91Z"/>
      <path class="cls-8" d="M759.39,190.91h-1.26l.27-1.81h-1.54l-.27,1.81h-1.26l.7-4.67h1.26l-.29,1.89h1.54l.29-1.89h1.26l-.7,4.67Z"/>
      <path class="cls-8" d="M763.1,190.91c-.03-.11-.05-.22-.07-.34-.01-.12-.02-.24-.02-.36-.16.23-.36.42-.6.57-.23.15-.5.22-.79.22-.47,0-.83-.13-1.06-.38-.24-.26-.32-.6-.25-1.03.07-.48.3-.83.68-1.08.39-.24.92-.36,1.61-.36h.71l.06-.37c.03-.23,0-.41-.1-.53-.1-.12-.27-.18-.5-.18-.2,0-.36.05-.49.15-.13.1-.21.24-.23.41h-1.21v-.03c.04-.41.26-.75.66-1.03.4-.28.9-.42,1.49-.42.54,0,.97.14,1.28.43s.43.69.35,1.21l-.29,1.93c-.03.23-.05.43-.04.62s.03.38.07.57h-1.26ZM762.07,190.06c.21,0,.41-.06.6-.17.19-.11.33-.24.42-.38l.1-.66h-.71c-.26,0-.47.07-.63.2-.16.14-.26.3-.29.48-.03.16,0,.29.1.38.09.09.22.14.41.14Z"/>
      <path class="cls-8" d="M769.73,186.23l-.7,4.67h-1.25l.25-1.64h-.76l-1.16,1.64h-1.27l1.32-1.86c-.26-.13-.46-.3-.58-.52-.13-.22-.17-.47-.12-.74.07-.47.3-.85.71-1.13.4-.28.91-.42,1.53-.42h2.06ZM766.7,187.82c-.03.17.01.31.12.43.11.12.28.18.51.18h.82l.19-1.22h-.8c-.23,0-.42.06-.57.19-.15.13-.24.27-.27.43Z"/>
      <path class="cls-8" d="M774.37,190.03c.21,0,.39-.07.55-.2.15-.13.25-.31.28-.52h1.14v.03c-.05.49-.29.89-.69,1.2-.4.31-.88.46-1.42.46-.67,0-1.16-.22-1.48-.67-.32-.45-.43-1.01-.33-1.69l.02-.13c.11-.71.38-1.28.82-1.71s1-.65,1.7-.65c.55,0,.98.17,1.29.5.31.33.42.76.33,1.3v.02h-1.16c.04-.25,0-.45-.1-.61-.1-.16-.27-.24-.5-.24-.31,0-.56.13-.75.4-.18.26-.3.6-.36.99l-.02.13c-.07.43-.05.77.05,1.02.1.25.31.37.65.37Z"/>
      <path class="cls-8" d="M778.86,191c-.67,0-1.17-.22-1.52-.65-.34-.43-.46-.98-.36-1.64l.03-.17c.11-.73.38-1.3.82-1.74.44-.43,1-.65,1.67-.65.6,0,1.05.19,1.34.58.29.39.39.9.29,1.55l-.1.65h-2.79v.02c-.04.33.01.59.16.79.14.19.39.29.73.29.27,0,.51-.03.73-.09.22-.06.43-.15.66-.26l.22.78c-.21.15-.49.28-.82.38s-.69.16-1.07.16ZM779.36,187.12c-.24,0-.45.09-.61.26-.17.18-.29.4-.36.69v.03h1.54v-.1c.06-.28.03-.5-.05-.65-.09-.15-.26-.23-.51-.23Z"/>
      <path class="cls-8" d="M785.94,187.2h-1.5l-.55,3.71h-1.27l.55-3.71h-1.47l.14-.96h4.23l-.14.96Z"/>
      <path class="cls-8" d="M787.86,187.75h.88c.6,0,1.07.15,1.39.44.33.29.46.67.39,1.13-.07.49-.31.88-.71,1.16-.4.28-.91.43-1.55.43h-2.14l.7-4.67h1.27l-.23,1.51ZM787.72,188.71l-.19,1.23h.88c.25,0,.45-.06.59-.17.15-.12.24-.26.27-.44.03-.18-.02-.33-.12-.44-.11-.11-.29-.17-.55-.17h-.88Z"/>
      <path class="cls-8" d="M797.93,186.23l-.7,4.67h-1.26l.55-3.7h-1.12l-.15,1.01c-.14.96-.39,1.64-.73,2.06-.34.42-.86.62-1.54.62h-.2l.13-.99h.14c.28,0,.48-.13.61-.37.13-.24.24-.68.33-1.32l.3-1.99h3.64Z"/>
      <path class="cls-8" d="M800.9,190.91c-.03-.11-.05-.22-.07-.34-.01-.12-.02-.24-.02-.36-.16.23-.36.42-.6.57-.23.15-.5.22-.79.22-.47,0-.83-.13-1.06-.38-.24-.26-.32-.6-.25-1.03.07-.48.3-.83.68-1.08.39-.24.92-.36,1.61-.36h.71l.06-.37c.03-.23,0-.41-.1-.53-.1-.12-.27-.18-.5-.18-.2,0-.36.05-.49.15-.13.1-.21.24-.23.41h-1.21v-.03c.04-.41.26-.75.66-1.03.4-.28.9-.42,1.49-.42.54,0,.97.14,1.28.43s.43.69.35,1.21l-.29,1.93c-.03.23-.05.43-.04.62s.03.38.07.57h-1.26ZM799.88,190.06c.21,0,.41-.06.6-.17.19-.11.33-.24.42-.38l.1-.66h-.71c-.26,0-.47.07-.63.2-.16.14-.26.3-.29.48-.03.16,0,.29.1.38.09.09.22.14.41.14Z"/>
      <path class="cls-8" d="M805.72,186.15c.63,0,1.1.22,1.42.67s.42,1.02.32,1.71v.09c-.13.73-.41,1.31-.86,1.74s-1.02.64-1.71.64-1.17-.22-1.51-.67-.45-1.02-.35-1.71v-.09s.03-.07.03-.07l.15-1.01c.15-.96.43-1.66.84-2.08s.99-.64,1.75-.67c.38,0,.67-.05.86-.13.19-.08.3-.21.33-.38h.97v.03c-.07.58-.28.97-.63,1.17-.35.2-.87.31-1.58.32-.43,0-.76.1-1.01.27s-.38.41-.41.7v.02c.18-.16.38-.29.62-.39.24-.1.49-.16.74-.16ZM805.47,187.12c-.31,0-.57.13-.77.4-.2.27-.33.6-.39,1.01v.09c-.08.44-.06.79.05,1.04s.34.38.67.38c.31,0,.57-.13.76-.39s.33-.6.39-1.02v-.09c.07-.43.05-.77-.06-1.03-.11-.25-.33-.38-.66-.38Z"/>
      <path class="cls-8" d="M808.02,188.53c.11-.72.38-1.3.84-1.73.45-.43,1.02-.65,1.72-.65s1.17.22,1.5.67.45,1.02.35,1.71v.09c-.13.73-.41,1.31-.86,1.74s-1.02.64-1.72.64-1.17-.22-1.5-.67c-.34-.45-.45-1.02-.35-1.71v-.09ZM809.26,188.62c-.07.44-.05.79.06,1.04s.34.38.67.38c.31,0,.57-.13.76-.39s.33-.6.39-1.02v-.09c.07-.43.05-.77-.06-1.03-.11-.25-.33-.38-.66-.38-.31,0-.57.13-.77.4-.2.27-.33.6-.38,1.01v.09Z"/>
      <path class="cls-8" d="M817.39,188.7c-.11.72-.35,1.28-.73,1.69-.38.41-.86.61-1.43.61-.24,0-.45-.05-.62-.14-.18-.1-.32-.24-.43-.42l-.34,2.27h-1.26l.97-6.47h1.14v.55c.16-.21.35-.37.56-.48s.44-.16.7-.16c.56,0,.96.23,1.23.68.26.46.34,1.05.23,1.78v.09ZM816.15,188.61c.07-.45.05-.81-.06-1.08-.11-.27-.31-.4-.62-.4-.18,0-.35.04-.5.12-.15.08-.27.2-.38.35l-.31,2.02c.06.14.15.24.27.31s.28.1.48.1c.29,0,.53-.12.72-.36s.31-.56.37-.97v-.09Z"/>
      <path class="cls-8" d="M820.59,190.91c-.03-.11-.05-.22-.07-.34-.01-.12-.02-.24-.02-.36-.16.23-.36.42-.6.57-.23.15-.5.22-.79.22-.47,0-.83-.13-1.06-.38-.24-.26-.32-.6-.25-1.03.07-.48.3-.83.68-1.08.39-.24.92-.36,1.61-.36h.71l.06-.37c.03-.23,0-.41-.1-.53-.1-.12-.27-.18-.5-.18-.2,0-.36.05-.49.15-.13.1-.21.24-.23.41h-1.21v-.03c.04-.41.26-.75.66-1.03.4-.28.9-.42,1.49-.42.54,0,.97.14,1.28.43s.43.69.35,1.21l-.29,1.93c-.03.23-.05.43-.04.62s.03.38.07.57h-1.26ZM819.57,190.06c.21,0,.41-.06.6-.17.19-.11.33-.24.42-.38l.1-.66h-.71c-.26,0-.47.07-.63.2-.16.14-.26.3-.29.48-.03.16,0,.29.1.38.09.09.22.14.41.14Z"/>
      <path class="cls-8" d="M827.03,187.2h-1.5l-.55,3.71h-1.27l.55-3.71h-1.47l.14-.96h4.23l-.14.96Z"/>
      <path class="cls-8" d="M827.21,188.53c.11-.72.38-1.3.84-1.73.45-.43,1.02-.65,1.72-.65s1.17.22,1.5.67.45,1.02.35,1.71v.09c-.13.73-.41,1.31-.86,1.74s-1.02.64-1.72.64-1.17-.22-1.5-.67c-.34-.45-.45-1.02-.35-1.71v-.09ZM828.45,188.62c-.07.44-.05.79.06,1.04s.34.38.67.38c.31,0,.57-.13.76-.39s.33-.6.39-1.02v-.09c.07-.43.05-.77-.06-1.03-.11-.25-.33-.38-.66-.38-.31,0-.57.13-.77.4-.2.27-.33.6-.38,1.01v.09Z"/>
      <path class="cls-8" d="M836.58,188.7c-.11.72-.35,1.28-.73,1.69-.38.41-.86.61-1.43.61-.24,0-.45-.05-.62-.14-.18-.1-.32-.24-.43-.42l-.34,2.27h-1.26l.97-6.47h1.14v.55c.16-.21.35-.37.56-.48s.44-.16.7-.16c.56,0,.96.23,1.23.68.26.46.34,1.05.23,1.78v.09ZM835.34,188.61c.07-.45.05-.81-.06-1.08-.11-.27-.31-.4-.62-.4-.18,0-.35.04-.5.12-.15.08-.27.2-.38.35l-.31,2.02c.06.14.15.24.27.31s.28.1.48.1c.29,0,.53-.12.72-.36s.31-.56.37-.97v-.09Z"/>
      <path class="cls-8" d="M840.52,186.23h1.26l-.7,4.67h-1.26l.42-2.84h-.03s-1.95,2.84-1.95,2.84h-1.26l.7-4.67h1.26l-.43,2.84h.03s1.95-2.84,1.95-2.84Z"/>
      <path class="cls-8" d="M845.51,186.23h1.26l-.7,4.67h-1.26l.42-2.84h-.03s-1.95,2.84-1.95,2.84h-1.26l.7-4.67h1.26l-.43,2.84h.03s1.95-2.84,1.95-2.84ZM846.46,184.2v.03c-.04.38-.21.68-.5.91-.3.22-.68.34-1.13.34s-.78-.12-1.03-.35c-.25-.23-.34-.53-.27-.89v-.03h.93c-.03.16,0,.29.07.38s.21.14.4.14c.18,0,.32-.05.42-.15.1-.1.17-.22.19-.37h.92Z"/>
    </g>
    <path class="cls-6" d="M437.53,214.13c48.19,0,136.26-2.18,195.17-89.75,5.9-8.78-6.47,6.93,0,0C689.34,30.31,767.65,2.87,812.84,2.87h.21c-45.19,0-142.14,27.44-198.79,121.51h0c-58.9,87.57-146.98,89.75-195.17,89.75"/>
    <path class="cls-3" d="M503.71,215.13c1.25,0,2.52,0,3.82,0"/>
  </g>
</svg>