<?xml version="1.0" encoding="UTF-8"?>
<svg id="_Слой_2" data-name="Слой_2" xmlns="http://www.w3.org/2000/svg" viewBox="0 0 171.35 79.34">
  <defs>
    <style>
      .cls-1 {
        fill-rule: evenodd;
      }

      .cls-1, .cls-2 {
        fill: #e30613;
      }

      .cls-3 {
        fill: #008ab0;
      }

      .cls-4 {
        fill: #f45c73;
      }

      .cls-5 {
        fill: #0fb3e5;
      }
    </style>
  </defs>
  <g id="_Слой_2-2" data-name="Слой_2">
    <path class="cls-5" d="M18.61,22.31c0,3.98,1.56,5.96,4.68,5.96,1.45,0,3.08-.34,4.9-1.02l.86,2.58c-1.79.94-3.89,1.41-6.32,1.41-5.38,0-8.08-2.89-8.08-8.68,0-.85.07-1.66.2-2.45.13-.79.39-1.61.77-2.45.38-.85.86-1.58,1.45-2.19.58-.61,1.38-1.12,2.39-1.52,1.01-.4,2.17-.6,3.48-.6,1.95,0,3.69.28,5.22.85l-.71,2.75c-1.21-.38-2.55-.56-4-.56-1.52,0-2.71.53-3.56,1.59-.85,1.06-1.27,2.51-1.27,4.34Z"/>
    <path class="cls-5" d="M47.33,31h-3.89v-12.28h-.14l-2.22,3.56c-3.29,5.15-5.17,8.06-5.65,8.72h-3.68V13.74h3.86v12.14h.18c.09-.16.34-.58.75-1.25.4-.67.73-1.18.96-1.54,2.88-4.4,4.91-7.52,6.07-9.35h3.75v17.26Z"/>
    <path class="cls-5" d="M55.73,31v-14.51h-6.07v-2.79h15.97v2.79h-6.04v14.51h-3.86Z"/>
    <path class="cls-5" d="M83.5,31h-3.89v-12.28h-.14l-2.22,3.56c-3.29,5.15-5.17,8.06-5.65,8.72h-3.68V13.74h3.86v12.14h.18c.09-.16.34-.58.75-1.25.4-.67.73-1.18.96-1.54,2.88-4.4,4.91-7.52,6.07-9.35h3.75v17.26Z"/>
    <path class="cls-4" d="M102.11,31h-3.89v-14.54h-5.04l-.11,1.91c-.24,4.14-.54,6.91-.89,8.29-.64,2.47-1.95,4.12-3.93,4.94-.48.19-1,.34-1.57.46l-1-2.61c1.72-.64,2.77-1.62,3.16-2.95.39-1.33.68-4.1.88-8.31l.21-4.48h12.18v17.29Z"/>
    <path class="cls-4" d="M120.34,19.28v9.04h2.32l.21,2.19c-1.05.52-2.25.78-3.61.78-.81,0-1.42-.15-1.82-.44-.41-.29-.63-.85-.68-1.68l-.07-.07c-1.74,1.48-3.75,2.22-6.04,2.22-.98,0-1.83-.16-2.55-.49-.73-.33-1.27-.75-1.64-1.27-.37-.52-.64-1.05-.8-1.59-.17-.54-.25-1.08-.25-1.62,0-1.6.65-2.85,1.95-3.74,1.3-.89,2.96-1.39,4.98-1.48l4.25-.28v-.95c0-1.29-.25-2.2-.75-2.72-.5-.52-1.43-.78-2.79-.78-1.79,0-3.61.31-5.47.92-.19-.71-.43-1.53-.71-2.47,2.14-.94,4.51-1.41,7.11-1.41,2.07,0,3.65.45,4.73,1.36,1.08.91,1.63,2.41,1.63,4.5ZM116.58,22.99l-4.04.28c-2.02.14-3.04,1.02-3.04,2.65,0,1.81.94,2.72,2.82,2.72,1.38,0,2.8-.65,4.25-1.94v-3.71Z"/>
    <path class="cls-4" d="M139.54,13.78v2.56h-9.54v4.16h4.93c2.1,0,3.74.46,4.93,1.38,1.19.92,1.79,2.16,1.79,3.71,0,1.69-.59,2.98-1.77,3.88-1.18.9-2.71,1.35-4.59,1.35h-9.18V13.78h13.44ZM134.28,23.01h-4.29v5.23h4.54c.95,0,1.74-.22,2.38-.67.63-.44.95-1.11.95-2,0-1.71-1.19-2.56-3.57-2.56Z"/>
    <circle class="cls-5" cx="140.4" cy="43.22" r="2.54"/>
    <circle class="cls-5" cx="151.29" cy="35.65" r="3.1"/>
    <path class="cls-5" d="M142.94,2.54C142.94,1.14,141.81,0,140.4,0s-2.54,1.14-2.54,2.54,1.14,2.54,2.54,2.54,2.54-1.14,2.54-2.54Z"/>
    <circle class="cls-5" cx="151.29" cy="10.11" r="3.1"/>
    <circle class="cls-4" cx="156.12" cy="22.64" r="3.56"/>
    <g>
      <path class="cls-1" d="M101.38,65.52c-.1-1.03-.29-2.02-.63-3.02-.97-2.76-2.65-2.29-5.04-1.92-.95.14-2.14.3-3.25.16-.55-.07-.97-.24-1.49-.47-14.39-6.37-4.39,30.66.34,14.47.32-.77,1.02-1.18,1.6-.97.8.25.95,1.62,1.07,2.42.37,2.55,1.6,3.71,3.51,1.99,3.17-3.17,4.2-8.09,3.9-12.61v-.04ZM93.45,72.86c-.08.11-.41,0-.57-.02-3.25-.25-2.46,9.18-6.5,3.77-.46-.63.04-.19.33.02,1.29,1.05,2.4.56,2.95-.9.3-.69.43-1.59.76-2.28.44-.99,1.75-2.15,2.74-1.15.14.16.34.35.3.55h0ZM94.28,65.4c-1.65.93-3.76.63-5.3-.38-.15-.11-.4-.25-.41-.42.04-.15.34-.15.5-.17,1.38-.1,2.71-.49,3.91-1.45.9-.75,1.8-1.43,2.9-1.86,1.62-.64,2.04.18,1.45,1.37-.56,1.14-1.85,2.26-3,2.89l-.04.02ZM100.65,67.09c-.23,3.65-.84,7.54-3.21,10.28-.42.5-.99,1.03-1.7.97-.7-.04-1.69-.84-.71-.9,5.17-1.45,5.08-9.19,5.14-14.13.01-.74.18-.17.24.16.23,1.15.26,2.4.24,3.58v.04ZM101.32,69.57c0,.06-.02.25-.07.28-.01-.09.02-.21.06-.28h0Z"/>
      <path class="cls-3" d="M11.29,65.84l-2.75,1.21c-.4-1.63-1.28-2.45-2.65-2.45-.95,0-1.68.43-2.17,1.3-.5.86-.74,2.08-.74,3.64v1.14c0,1.56.25,2.78.74,3.64.49.86,1.22,1.3,2.17,1.3,1.37,0,2.25-.82,2.65-2.45l2.75,1.21c-.38,1.54-1.04,2.75-1.98,3.64-.94.89-2.09,1.33-3.44,1.33-1.84,0-3.27-.79-4.31-2.36-1.04-1.57-1.55-3.56-1.55-5.95v-1.85c0-2.34.52-4.32,1.57-5.92,1.04-1.6,2.48-2.4,4.29-2.4,1.39,0,2.55.44,3.48,1.31.94.88,1.58,2.1,1.94,3.66Z"/>
      <path class="cls-3" d="M13.26,61.23h10.56v3.69h-3.81v14.07h-2.97v-14.07h-3.78v-3.69Z"/>
      <path class="cls-3" d="M25.63,71v-1.78c0-2.32.53-4.29,1.59-5.92,1.06-1.62,2.52-2.43,4.37-2.43s3.31.79,4.36,2.38c1.05,1.59,1.58,3.58,1.58,5.97v1.78c0,2.32-.53,4.29-1.58,5.92-1.05,1.62-2.51,2.43-4.36,2.43s-3.33-.79-4.39-2.38c-1.05-1.59-1.58-3.58-1.58-5.97ZM28.6,69.57v1.07c0,1.56.26,2.78.77,3.66.51.88,1.26,1.31,2.23,1.31s1.69-.44,2.2-1.31c.51-.88.77-2.1.77-3.66v-1.07c0-1.56-.26-2.78-.77-3.66-.51-.88-1.25-1.31-2.2-1.31s-1.71.44-2.23,1.31c-.51.88-.77,2.1-.77,3.66Z"/>
      <path class="cls-3" d="M40.67,61.23h2.92l3.94,10.52,3.97-10.52h2.92v17.76h-2.86v-10.55h-.11l-3.24,8.53h-1.32l-3.27-8.53h-.11v10.55h-2.84v-17.76Z"/>
      <path class="cls-3" d="M68.45,78.99h-2.38l-.38-2.13c-.72,1.66-1.95,2.49-3.7,2.49-1.33,0-2.41-.51-3.23-1.53-.82-1.02-1.23-2.4-1.23-4.16s.46-3.07,1.39-4.1c.93-1.03,2.16-1.55,3.69-1.55h2.92v-.57c0-1.99-.81-2.98-2.43-2.98-1.49,0-2.83.44-4,1.31l-1.13-3.09c1.53-1.21,3.26-1.81,5.18-1.81,1.76,0,3.09.59,3.97,1.78.88,1.18,1.32,2.88,1.32,5.08v11.26ZM65.56,72.38v-.99h-2.89c-.68,0-1.22.2-1.59.6-.38.4-.57.94-.57,1.6,0,1.49.72,2.24,2.16,2.24.88,0,1.58-.31,2.11-.94.52-.63.78-1.46.78-2.5Z"/>
      <path class="cls-3" d="M70.69,61.23h10.56v3.69h-3.81v14.07h-2.97v-14.07h-3.78v-3.69Z"/>
      <path class="cls-3" d="M105.46,61.23h10.15v17.76h-2.97v-14.07h-4.27v6.18c0,5.35-1.53,8.03-4.59,8.03h-.95v-3.69h.76c1.24,0,1.86-1.5,1.86-4.51v-9.7Z"/>
      <path class="cls-3" d="M118.75,71v-1.78c0-2.32.53-4.29,1.59-5.92,1.06-1.62,2.52-2.43,4.37-2.43s3.31.79,4.36,2.38c1.05,1.59,1.58,3.58,1.58,5.97v1.78c0,2.32-.53,4.29-1.58,5.92-1.05,1.62-2.51,2.43-4.36,2.43s-3.33-.79-4.39-2.38c-1.05-1.59-1.58-3.58-1.58-5.97ZM121.72,69.57v1.07c0,1.56.26,2.78.77,3.66.51.88,1.26,1.31,2.23,1.31s1.69-.44,2.2-1.31c.51-.88.77-2.1.77-3.66v-1.07c0-1.56-.26-2.78-.77-3.66-.51-.88-1.25-1.31-2.2-1.31s-1.71.44-2.23,1.31c-.51.88-.77,2.1-.77,3.66Z"/>
      <path class="cls-3" d="M133.79,61.23h9.24v3.69h-6.26v14.07h-2.97v-17.76Z"/>
      <path class="cls-3" d="M157.42,78.99h-2.92v-10.94h-.11l-5.54,10.94h-2.65v-17.76h2.92v10.94h.11l5.54-10.94h2.65v17.76Z"/>
      <path class="cls-3" d="M171.35,61.23v17.76h-2.97v-5.04h-2.78l-2,5.04h-3.32l2.62-6.11c-1.44-1.16-2.16-2.92-2.16-5.29,0-1.97.49-3.52,1.46-4.65.97-1.14,2.31-1.71,4.02-1.71h5.13ZM168.38,70.28v-5.4h-2.13c-1.69,0-2.54.9-2.54,2.7,0,.88.22,1.55.66,2.01.44.46,1.07.69,1.88.69h2.13Z"/>
    </g>
    <rect class="cls-2" x="107.88" y="52.96" width="56.36" height="2.89" rx="1.45" ry="1.45"/>
    <rect class="cls-3" x="76.85" y="52.96" width="28.5" height="2.89" rx="1.45" ry="1.45"/>
    <rect class="cls-2" x="7.11" y="52.96" width="67.2" height="2.89" rx="1.45" ry="1.45"/>
  </g>
</svg>